<svg width="16" height="16" viewBox="0 0 16 16" fill="none" xmlns="http://www.w3.org/2000/svg">
<path d="M8.00016 8.00033C9.4735 8.00033 10.6668 6.80699 10.6668 5.33366C10.6668 3.86033 9.4735 2.66699 8.00016 2.66699C6.52683 2.66699 5.3335 3.86033 5.3335 5.33366C5.3335 6.80699 6.52683 8.00033 8.00016 8.00033Z" fill="#939BA2"/>
<path fill-rule="evenodd" clip-rule="evenodd" d="M11.3332 8.33301C10.5968 8.33301 9.99984 8.92996 9.99984 9.66634V10.6663C9.26346 10.6663 8.6665 11.2633 8.6665 11.9997V13.9997C8.6665 14.7361 9.26346 15.333 9.99984 15.333H13.9998C14.7362 15.333 15.3332 14.7361 15.3332 13.9997V11.9997C15.3332 11.2633 14.7362 10.6663 13.9998 10.6663V9.66634C13.9998 8.92996 13.4029 8.33301 12.6665 8.33301H11.3332ZM12.6665 10.6663V9.66634H11.3332V10.6663H12.6665ZM9.99984 11.9997V13.9997H13.9998V11.9997H9.99984Z" fill="#939BA2"/>
<path d="M8.66646 9.36749C8.42661 9.34451 8.20181 9.33301 7.99984 9.33301C6.21984 9.33301 2.6665 10.2263 2.6665 11.9997V12.6663C2.6665 13.033 2.9665 13.333 3.33317 13.333H7.33313V11.333C7.33313 10.5966 7.93008 9.99967 8.66646 9.99967V9.36749Z" fill="#939BA2"/>
</svg>
