<svg width="40" height="40" viewBox="0 0 40 40" fill="none" xmlns="http://www.w3.org/2000/svg">
<g id="edit_square">
<g id="Edit Square">
<path id="Stroke 1" d="M19.2819 10.041H15.312C12.0471 10.041 10 12.3525 10 15.6248V24.4522C10 27.7245 12.0375 30.036 15.312 30.036H24.6809C27.9564 30.036 29.9939 27.7245 29.9939 24.4522V20.1755" stroke="#AAAFB5" stroke-width="1.5" stroke-linecap="round" stroke-linejoin="round"/>
<path id="Stroke 3" fill-rule="evenodd" clip-rule="evenodd" d="M16.4527 18.6751L24.3872 10.7406C25.3757 9.75314 26.9779 9.75314 27.9664 10.7406L29.2585 12.0327C30.247 13.0212 30.247 14.6245 29.2585 15.6119L21.2858 23.5846C20.8537 24.0168 20.2676 24.2599 19.656 24.2599H15.6787L15.7785 20.2465C15.7934 19.6561 16.0344 19.0934 16.4527 18.6751Z" stroke="#AAAFB5" stroke-width="1.5" stroke-linecap="round" stroke-linejoin="round"/>
<path id="Stroke 5" d="M23.1816 11.9663L28.0296 16.8143" stroke="#AAAFB5" stroke-width="1.5" stroke-linecap="round" stroke-linejoin="round"/>
</g>
</g>
</svg>
