<svg width="36" height="36" viewBox="0 0 36 36" fill="none" xmlns="http://www.w3.org/2000/svg">
<rect width="36" height="36" rx="12" fill="#D9EFFA"/>
<path fill-rule="evenodd" clip-rule="evenodd" d="M11.75 21.125L9.11803 22.441L8 23L9.11803 23.559L18 28L26.882 23.559L28 23L26.882 22.441L24.25 21.125L23.132 21.684L25.7639 23L18 26.882L10.2361 23L12.868 21.684L11.75 21.125Z" fill="#00689D"/>
<path d="M8 13L18 8L28 13L18 18L8 13Z" fill="#00689D"/>
<path fill-rule="evenodd" clip-rule="evenodd" d="M11.75 16.125L9.11803 17.441L8 18L9.11803 18.559L18 23L26.882 18.559L28 18L26.882 17.441L24.25 16.125L23.132 16.684L25.7639 18L18 21.882L10.2361 18L12.868 16.684L11.75 16.125Z" fill="#00689D"/>
</svg>
