<svg width="40" height="40" viewBox="0 0 40 40" fill="none" xmlns="http://www.w3.org/2000/svg">
<g id="ic_avatar">
<g id="Image">
<path id="Stroke 1" fill-rule="evenodd" clip-rule="evenodd" d="M30 15.5785V24.4095C30 27.6815 27.9523 29.9892 24.6804 29.9892H15.3088C12.0368 29.9892 10 27.6815 10 24.4095V15.5785C10 12.3066 12.0477 10 15.3088 10H24.6804C27.9523 10 30 12.3066 30 15.5785Z" stroke="#AAAFB5" stroke-width="1.5" stroke-linecap="round" stroke-linejoin="round"/>
<path id="Stroke 3" d="M12.7424 24.8219L14.3979 23.0743C14.9732 22.4643 15.932 22.4351 16.5431 23.0093C16.5615 23.0277 17.5582 24.0407 17.5582 24.0407C18.1595 24.6529 19.1422 24.6626 19.7543 24.0624C19.7944 24.0234 22.2831 21.005 22.2831 21.005C22.9244 20.226 24.0761 20.1144 24.8562 20.7569C24.9082 20.8002 27.2592 23.213 27.2592 23.213" stroke="#AAAFB5" stroke-width="1.5" stroke-linecap="round" stroke-linejoin="round"/>
<path id="Stroke 5" fill-rule="evenodd" clip-rule="evenodd" d="M18.1935 16.9155C18.1935 17.9653 17.343 18.8158 16.2931 18.8158C15.2433 18.8158 14.3928 17.9653 14.3928 16.9155C14.3928 15.8656 15.2433 15.0151 16.2931 15.0151C17.343 15.0162 18.1935 15.8656 18.1935 16.9155Z" stroke="#AAAFB5" stroke-width="1.5" stroke-linecap="round" stroke-linejoin="round"/>
</g>
</g>
</svg>
