<svg width="56" height="55" viewBox="0 0 56 55" fill="none" xmlns="http://www.w3.org/2000/svg">
<rect x="0.5" width="55" height="55" rx="25" fill="#E23672"/>
<g clip-path="url(#clip0)">
<path d="M39.7117 18H34.5731C34.2574 18 34 18.2574 34 18.5749V36.0803C34 36.3978 34.2574 36.6533 34.5731 36.6533H39.7117C40.0293 36.6533 40.2848 36.3959 40.2848 36.0803V18.5749C40.2848 18.2574 40.0274 18 39.7117 18ZM37.1415 35.2329C36.358 35.2329 35.7229 34.5978 35.7229 33.8144C35.7229 33.0309 36.358 32.3958 37.1415 32.3958C37.9249 32.3958 38.56 33.0309 38.56 33.8144C38.56 34.5978 37.9268 35.2329 37.1415 35.2329ZM39.1706 28.2041C39.1706 28.2867 39.103 28.3525 39.0203 28.3525H35.2645C35.1818 28.3525 35.1142 28.2849 35.1142 28.2041V19.721C35.1142 19.6384 35.1818 19.5707 35.2645 19.5707H35.9033L37.0005 20.668C37.0795 20.7469 37.2072 20.7469 37.2861 20.668L38.3815 19.5726H39.0203C39.103 19.5726 39.1706 19.6402 39.1706 19.7229V28.2041Z" fill="white"/>
<path d="M38.5618 22.154H35.7229C35.5669 22.154 35.441 22.0282 35.441 21.8722C35.441 21.7163 35.5669 21.5903 35.7229 21.5903H38.5618C38.7178 21.5903 38.8437 21.7163 38.8437 21.8722C38.8437 22.0282 38.7178 22.154 38.5618 22.154Z" fill="white"/>
<path d="M38.5618 23.4055H35.7229C35.5669 23.4055 35.441 23.2796 35.441 23.1237C35.441 22.9677 35.5669 22.8418 35.7229 22.8418H38.5618C38.7178 22.8418 38.8437 22.9677 38.8437 23.1237C38.8437 23.2796 38.7178 23.4055 38.5618 23.4055Z" fill="white"/>
<path d="M38.5618 24.6586H35.7229C35.5669 24.6586 35.441 24.5327 35.441 24.3768C35.441 24.2209 35.5669 24.095 35.7229 24.095H38.5618C38.7178 24.095 38.8437 24.2209 38.8437 24.3768C38.8437 24.5327 38.7178 24.6586 38.5618 24.6586Z" fill="white"/>
<path d="M38.5618 25.9118H35.7229C35.5669 25.9118 35.441 25.7859 35.441 25.63C35.441 25.474 35.5669 25.3481 35.7229 25.3481H38.5618C38.7178 25.3481 38.8437 25.474 38.8437 25.63C38.8437 25.7859 38.7178 25.9118 38.5618 25.9118Z" fill="white"/>
<path d="M38.5618 27.1632H35.7229C35.5669 27.1632 35.441 27.0374 35.441 26.8814C35.441 26.7255 35.5669 26.5996 35.7229 26.5996H38.5618C38.7178 26.5996 38.8437 26.7255 38.8437 26.8814C38.8437 27.0374 38.7178 27.1632 38.5618 27.1632Z" fill="white"/>
<path d="M21.7118 18H16.5731C16.2575 18 16 18.2574 16 18.5749V36.0803C16 36.3978 16.2575 36.6533 16.5731 36.6533H21.7118C22.0293 36.6533 22.2848 36.3959 22.2848 36.0803V18.5749C22.2848 18.2574 22.0274 18 21.7118 18ZM19.1415 35.2329C18.358 35.2329 17.723 34.5978 17.723 33.8144C17.723 33.0309 18.358 32.3958 19.1415 32.3958C19.925 32.3958 20.56 33.0309 20.56 33.8144C20.56 34.5978 19.9269 35.2329 19.1415 35.2329ZM21.1707 28.2041C21.1707 28.2867 21.103 28.3525 21.0204 28.3525H17.2645C17.1818 28.3525 17.1142 28.2849 17.1142 28.2041V19.721C17.1142 19.6384 17.1818 19.5707 17.2645 19.5707H17.9033L19.0006 20.668C19.0795 20.7469 19.2072 20.7469 19.2861 20.668L20.3816 19.5726H21.0204C21.103 19.5726 21.1707 19.6402 21.1707 19.7229V28.2041Z" fill="white"/>
<path d="M20.5618 22.154H17.7229C17.5669 22.154 17.441 22.0282 17.441 21.8722C17.441 21.7163 17.5669 21.5903 17.7229 21.5903H20.5618C20.7178 21.5903 20.8436 21.7163 20.8436 21.8722C20.8436 22.0282 20.7178 22.154 20.5618 22.154Z" fill="white"/>
<path d="M20.5618 23.4055H17.7229C17.5669 23.4055 17.441 23.2796 17.441 23.1237C17.441 22.9677 17.5669 22.8418 17.7229 22.8418H20.5618C20.7178 22.8418 20.8436 22.9677 20.8436 23.1237C20.8436 23.2796 20.7178 23.4055 20.5618 23.4055Z" fill="white"/>
<path d="M20.5618 24.6586H17.7229C17.5669 24.6586 17.441 24.5327 17.441 24.3768C17.441 24.2209 17.5669 24.095 17.7229 24.095H20.5618C20.7178 24.095 20.8436 24.2209 20.8436 24.3768C20.8436 24.5327 20.7178 24.6586 20.5618 24.6586Z" fill="white"/>
<path d="M20.5618 25.9118H17.7229C17.5669 25.9118 17.441 25.7859 17.441 25.63C17.441 25.474 17.5669 25.3481 17.7229 25.3481H20.5618C20.7178 25.3481 20.8436 25.474 20.8436 25.63C20.8436 25.7859 20.7178 25.9118 20.5618 25.9118Z" fill="white"/>
<path d="M20.5618 27.1632H17.7229C17.5669 27.1632 17.441 27.0374 17.441 26.8814C17.441 26.7255 17.5669 26.5996 17.7229 26.5996H20.5618C20.7178 26.5996 20.8436 26.7255 20.8436 26.8814C20.8436 27.0374 20.7178 27.1632 20.5618 27.1632Z" fill="white"/>
<path d="M26.0005 27.1877V27.9374H31.6234C31.7228 27.9374 31.8182 27.9769 31.8885 28.0472C31.9588 28.1175 31.9983 28.2129 31.9983 28.3123V28.5622C31.9983 28.6616 31.9588 28.757 31.8885 28.8273C31.8182 28.8976 31.7228 28.9371 31.6234 28.9371H26.0005V29.6868C26.0005 30.0217 25.5953 30.1866 25.3601 29.9523L24.1105 28.7028C24.0402 28.6325 24.0007 28.5371 24.0007 28.4377C24.0007 28.3383 24.0402 28.243 24.1105 28.1727L25.3601 26.9231C25.5965 26.6869 26.0005 26.8552 26.0005 27.1877Z" fill="white"/>
<path d="M31.8902 25.1733C31.925 25.2081 31.9527 25.2495 31.9715 25.295C31.9904 25.3405 32.0001 25.3892 32.0001 25.4385C32.0001 25.4877 31.9904 25.5365 31.9715 25.582C31.9527 25.6275 31.925 25.6688 31.8902 25.7036L30.6407 26.9532C30.4064 27.1874 30.0003 27.0233 30.0003 26.6876V25.9379H24.3773C24.2779 25.9379 24.1825 25.8984 24.1122 25.8281C24.0419 25.7578 24.0024 25.6625 24.0024 25.563V25.3131C24.0024 25.2137 24.0419 25.1184 24.1122 25.0481C24.1825 24.9778 24.2779 24.9383 24.3773 24.9383H30.0003V24.1885C30.0003 23.8549 30.4048 23.6887 30.6407 23.923L31.8902 25.1733Z" fill="white"/>
</g>
<defs>
<clipPath id="clip0">
<rect width="24" height="24" fill="white" transform="translate(16 15)"/>
</clipPath>
</defs>
</svg>
