<svg width="56" height="55" viewBox="0 0 56 55" fill="none" xmlns="http://www.w3.org/2000/svg">
<rect x="0.5" width="55" height="55" rx="25" fill="#3DB758"/>
<g clip-path="url(#clip0)">
<path fill-rule="evenodd" clip-rule="evenodd" d="M16 17.7164V37.8184H25.4537C25.4537 37.4932 25.4649 37.1679 25.4876 36.8495H16.9982V18.028C16.9982 17.4431 17.4725 16.9711 18.0551 16.9711H27.1384V22.5471H32.4569V24.7287H33.4551V22.0593L27.6353 16H17.7164C16.7679 16 16 16.7679 16 17.7164ZM28.1344 17.94L31.6236 21.576H28.1344V17.94Z" fill="white"/>
<path d="M25.4537 28.3624C25.8128 28.0213 26.1923 27.6984 26.5875 27.3936H22.2333V28.3624H25.4537Z" fill="white"/>
<path d="M24.6182 32.2423C24.6678 32.1248 24.7197 32.0097 24.7717 31.8945C24.8214 31.7861 24.8733 31.6799 24.9253 31.5738C24.975 31.4744 25.0247 31.3728 25.0766 31.2734H22.2333V32.2423H24.6182Z" fill="white"/>
<path d="M20.9866 27.8793C20.9866 28.55 20.4287 29.0921 19.7399 29.0921C19.0511 29.0921 18.4933 28.55 18.4933 27.8793C18.4933 27.414 18.7643 27.0098 19.1595 26.8065C19.2115 26.7794 19.2657 26.7569 19.3221 26.7365C19.4531 26.6913 19.5931 26.6665 19.7399 26.6665C20.2323 26.6665 20.6568 26.9443 20.8601 27.3463C20.9414 27.5067 20.9866 27.6873 20.9866 27.8793Z" fill="white"/>
<path d="M20.0448 32.9335C19.9477 32.9561 19.8461 32.9697 19.7399 32.9697C19.3583 32.9697 19.0172 32.8025 18.7891 32.5428C18.753 32.4999 18.7191 32.4547 18.6875 32.4073C18.6581 32.3621 18.631 32.3147 18.6085 32.2673C18.5339 32.1114 18.4933 31.9398 18.4933 31.7592C18.4933 31.0884 19.0511 30.5464 19.7399 30.5464C20.4287 30.5464 20.9866 31.0884 20.9866 31.7592C20.9866 31.8517 20.9753 31.9398 20.9549 32.0256C20.9346 32.1114 20.9075 32.1927 20.8691 32.2695C20.7607 32.4999 20.5778 32.6896 20.3542 32.8138C20.2594 32.8657 20.1555 32.9064 20.0448 32.9335Z" fill="white"/>
<path fill-rule="evenodd" clip-rule="evenodd" d="M21.4541 19.6001C19.7467 19.6001 18.3623 20.9845 18.3623 22.6896C18.3623 24.3969 19.7467 25.7813 21.4541 25.7813C23.1614 25.7813 24.5458 24.3969 24.5458 22.6896C24.5458 20.9845 23.1614 19.6001 21.4541 19.6001ZM21.8357 24.7741V25.4629H21.0498V24.8283C20.903 24.817 20.7562 24.7922 20.6184 24.7583C20.5213 24.7334 20.4265 24.7041 20.3407 24.6702C20.2345 24.6296 20.1397 24.5821 20.0606 24.5302L19.9838 24.4782L20.2277 23.6246L20.37 23.7081C20.6568 23.8775 21.0001 23.9746 21.3118 23.9746C21.4744 23.9746 21.6076 23.9408 21.7047 23.8797C21.8086 23.812 21.8696 23.7149 21.8696 23.5929C21.8696 23.5297 21.8583 23.4642 21.8086 23.3942C21.7747 23.3445 21.7205 23.2949 21.6415 23.2429C21.5512 23.1842 21.4247 23.1232 21.2508 23.06C20.6568 22.8454 20.0493 22.5247 20.0493 21.784C20.0493 21.1878 20.4446 20.7338 21.0905 20.5825V19.9253H21.8741V20.5306C21.9735 20.5373 22.0706 20.5509 22.1632 20.5689C22.3507 20.6051 22.5268 20.6661 22.6961 20.7519L22.791 20.7993L22.5449 21.6349L22.3755 21.5581C22.2242 21.4859 21.9667 21.3662 21.585 21.3662C21.2824 21.3662 21.0995 21.4859 21.0995 21.6891C21.0995 21.8675 21.2689 21.9917 21.7996 22.2063C22.59 22.5021 22.9265 22.8951 22.9265 23.5184C22.9265 24.1418 22.5019 24.6251 21.8357 24.7741Z" fill="white"/>
<path fill-rule="evenodd" clip-rule="evenodd" d="M33.0916 26.1807C29.2748 26.1807 26.1831 29.2747 26.1831 33.0891C26.1831 36.9058 29.2771 39.9976 33.0916 39.9976C36.9082 39.9976 40 36.9036 40 33.0891C40 29.2747 36.906 26.1807 33.0916 26.1807ZM32.2943 33.4075C31.9511 33.6763 31.4723 33.8118 30.8648 33.8118H29.9366V35.4876H28.8774V30.7314H30.8806C31.2668 30.7314 31.6055 30.7968 31.8991 30.9278C32.1927 31.0588 32.4163 31.244 32.5744 31.4856C32.7325 31.7273 32.8115 32.0005 32.8115 32.3077C32.8115 32.7707 32.6376 33.1388 32.2943 33.4075ZM37.7551 33.2156C37.7551 33.6831 37.6648 34.0941 37.4864 34.4464C37.308 34.7987 37.0528 35.072 36.7186 35.2639C36.3866 35.4559 36.0049 35.5507 35.5735 35.5507C35.149 35.5507 34.7673 35.4559 34.433 35.2662C34.0988 35.0765 33.8413 34.8055 33.6562 34.4554C33.4732 34.1031 33.3806 33.6989 33.3784 33.2427V33.0078C33.3784 32.5403 33.4687 32.127 33.6517 31.7725C33.8345 31.4157 34.092 31.1424 34.424 30.9526C34.756 30.763 35.1377 30.6658 35.5645 30.6658C35.9914 30.6658 36.373 30.7607 36.705 30.9526C37.037 31.1424 37.2944 31.4157 37.4774 31.7725C37.6603 32.1293 37.7506 32.5403 37.7506 33.0055V33.2156H37.7551Z" fill="white"/>
<path fill-rule="evenodd" clip-rule="evenodd" d="M35.5691 31.4746C35.2145 31.4746 34.9389 31.6034 34.747 31.8585C34.555 32.1137 34.4556 32.4887 34.4534 32.9832V33.2159C34.4534 33.7014 34.5505 34.0785 34.7424 34.3473C34.9344 34.616 35.2122 34.7493 35.5758 34.7493C35.9304 34.7493 36.2036 34.6206 36.3933 34.3631C36.5831 34.1057 36.6802 33.7285 36.6824 33.2339V33.0013C36.6824 32.5022 36.5854 32.1228 36.3933 31.8653C36.2014 31.6056 35.9259 31.4746 35.5691 31.4746Z" fill="white"/>
<path fill-rule="evenodd" clip-rule="evenodd" d="M30.9054 31.5244H29.9343V33.0172H30.8806C31.1606 33.0172 31.3729 32.9563 31.522 32.8343C31.6687 32.7123 31.7433 32.5384 31.7433 32.3104C31.7433 32.0777 31.6687 31.888 31.522 31.7458C31.3707 31.6034 31.1674 31.5289 30.9054 31.5244Z" fill="white"/>
</g>
<defs>
<clipPath id="clip0">
<rect width="24" height="24" fill="white" transform="translate(16 16)"/>
</clipPath>
</defs>
</svg>
