<svg width="40" height="40" viewBox="0 0 40 40" fill="none" xmlns="http://www.w3.org/2000/svg">
<path d="M27.1875 20H26.5625C26.4796 20 26.4001 20.0329 26.3415 20.0915C26.2829 20.1501 26.25 20.2296 26.25 20.3125V28.125C26.25 28.2908 26.1842 28.4497 26.0669 28.5669C25.9497 28.6842 25.7908 28.75 25.625 28.75H11.875C11.7092 28.75 11.5503 28.6842 11.4331 28.5669C11.3158 28.4497 11.25 28.2908 11.25 28.125V14.375C11.25 14.2092 11.3158 14.0503 11.4331 13.9331C11.5503 13.8158 11.7092 13.75 11.875 13.75H19.6875C19.7704 13.75 19.8499 13.7171 19.9085 13.6585C19.9671 13.5999 20 13.5204 20 13.4375V12.8125C20 12.7296 19.9671 12.6501 19.9085 12.5915C19.8499 12.5329 19.7704 12.5 19.6875 12.5H11.875C11.3777 12.5 10.9008 12.6975 10.5492 13.0492C10.1975 13.4008 10 13.8777 10 14.375V28.125C10 28.6223 10.1975 29.0992 10.5492 29.4508C10.9008 29.8025 11.3777 30 11.875 30H25.625C26.1223 30 26.5992 29.8025 26.9508 29.4508C27.3025 29.0992 27.5 28.6223 27.5 28.125V20.3125C27.5 20.2296 27.4671 20.1501 27.4085 20.0915C27.3499 20.0329 27.2704 20 27.1875 20ZM28.75 10H28.7477L24.9914 10.0066C23.8801 10.0066 23.325 11.3559 24.1094 12.1402L25.4875 13.5184L15.1359 23.8699C15.0922 23.9135 15.0576 23.9652 15.0339 24.0222C15.0102 24.0792 14.9981 24.1403 14.9981 24.202C14.9981 24.2636 15.0102 24.3247 15.0339 24.3817C15.0576 24.4387 15.0922 24.4904 15.1359 24.534L15.4676 24.8656C15.5111 24.9093 15.5629 24.944 15.6199 24.9677C15.6768 24.9913 15.7379 25.0035 15.7996 25.0035C15.8613 25.0035 15.9224 24.9913 15.9794 24.9677C16.0363 24.944 16.0881 24.9093 16.1316 24.8656L26.4832 14.5141L27.8613 15.8918C28.6426 16.673 29.993 16.1262 29.9949 15.0102L30 11.252C30.0003 11.0876 29.9681 10.9249 29.9054 10.773C29.8427 10.6211 29.7507 10.4831 29.6346 10.3668C29.5185 10.2505 29.3806 10.1583 29.2288 10.0953C29.077 10.0324 28.9143 10 28.75 10V10ZM28.7434 15.0066L24.9934 11.2566L28.75 11.25L28.7434 15.0066Z" fill="#999999"/>
</svg>
