<svg width="40" height="40" viewBox="0 0 40 40" fill="none" xmlns="http://www.w3.org/2000/svg">
<g id="Password">
<g id="Password_2">
<path id="Stroke 1" fill-rule="evenodd" clip-rule="evenodd" d="M24.6854 10H15.3135C12.0476 10 10 12.3124 10 15.5849V24.4151C10 27.6876 12.0378 30 15.3135 30H24.6843C27.9611 30 30 27.6876 30 24.4151V15.5849C30 12.3124 27.9611 10 24.6854 10Z" stroke="#AAAFB5" stroke-width="1.5" stroke-linecap="round" stroke-linejoin="round"/>
<path id="Stroke 3" fill-rule="evenodd" clip-rule="evenodd" d="M18.5827 20C18.5827 21.106 17.6865 22.0022 16.5805 22.0022C15.4746 22.0022 14.5784 21.106 14.5784 20C14.5784 18.8941 15.4746 17.9979 16.5805 17.9979H16.5838C17.6876 17.9989 18.5827 18.8952 18.5827 20Z" stroke="#AAAFB5" stroke-width="1.5" stroke-linecap="round" stroke-linejoin="round"/>
<path id="Stroke 5" d="M18.5858 20H25.4161V22.0022" stroke="#AAAFB5" stroke-width="1.5" stroke-linecap="round" stroke-linejoin="round"/>
<path id="Stroke 7" d="M22.3585 22.0023V20.0001" stroke="#AAAFB5" stroke-width="1.5" stroke-linecap="round" stroke-linejoin="round"/>
</g>
</g>
</svg>
