<svg width="56" height="55" viewBox="0 0 56 55" fill="none" xmlns="http://www.w3.org/2000/svg">
<rect x="0.5" width="55" height="55" rx="25" fill="#08AAFB"/>
<path d="M16.58 39.404H25.015V30.9689H21.0952C21.0952 30.9613 21.099 30.9575 21.099 30.9499V26.5796L22.4501 27.6827C22.5799 27.7895 22.7708 27.7705 22.8739 27.6407C22.9807 27.5109 22.9616 27.3201 22.8319 27.217L20.9883 25.7132C20.8777 25.6216 20.7173 25.6216 20.6067 25.7132L18.7632 27.217C18.6334 27.3239 18.6143 27.5109 18.7212 27.6407C18.7822 27.7132 18.87 27.7514 18.954 27.7514C19.0227 27.7514 19.0876 27.7285 19.1448 27.6827L20.496 26.5796V30.9499C20.496 30.9575 20.4998 30.9613 20.4998 30.9689H16.58V39.404Z" fill="white"/>
<path d="M39.4765 39.4044H31.0414V30.9693H34.9613C34.9613 30.9617 34.9575 30.9579 34.9575 30.9502H35.5605C35.5605 30.9579 35.5567 30.9617 35.5567 30.9693H39.4765V39.4044Z" fill="white"/>
<path d="M28.3626 22.8857C28.4198 22.9315 28.4847 22.9544 28.5534 22.9544C28.6412 22.9544 28.729 22.9162 28.7862 22.8437L30.2901 21.0002C30.3816 20.8895 30.3816 20.7292 30.2901 20.6185L28.7862 18.775C28.6794 18.6453 28.4885 18.6262 28.3626 18.733C28.2328 18.8399 28.2137 19.0269 28.3206 19.1567L29.4236 20.5079H25.5725C25.4084 18.0079 23.3358 16.0308 20.7939 16.0308C18.145 16.0308 16 18.1758 16 20.8246C16 23.4735 18.145 25.6185 20.7939 25.6185C23.3435 25.6185 25.4237 23.6261 25.5725 21.1109H29.416L28.313 22.462C28.2137 22.588 28.2328 22.7788 28.3626 22.8857Z" fill="white"/>
<path d="M30.3585 20.8206L34.8738 25.3359V29.4198L33.5226 28.3167C33.3929 28.2099 33.202 28.229 33.099 28.3587C32.9921 28.4885 33.0112 28.6794 33.141 28.7824L34.9845 30.2862C35.0417 30.332 35.1066 30.3549 35.1753 30.3549C35.244 30.3549 35.3127 30.332 35.3662 30.2862L37.2097 28.7824C37.3395 28.6755 37.3585 28.4885 37.2516 28.3587C37.1448 28.229 36.954 28.2099 36.828 28.3167L35.4768 29.4198V25.3435L39.9997 20.8206L35.1791 16L30.3585 20.8206Z" fill="white"/>
</svg>
