<svg width="56" height="55" viewBox="0 0 56 55" fill="none" xmlns="http://www.w3.org/2000/svg">
<rect x="0.5" width="55" height="55" rx="25" fill="#D93E34"/>
<g clip-path="url(#clip0)">
<path d="M21.7117 19.0835H16.5731C16.2574 19.0835 16 19.3409 16 19.6584V37.1638C16 37.4813 16.2574 37.7368 16.5731 37.7368H21.7117C22.0293 37.7368 22.2848 37.4794 22.2848 37.1638V19.6584C22.2848 19.3409 22.0274 19.0835 21.7117 19.0835ZM19.1415 36.3164C18.358 36.3164 17.7229 35.6813 17.7229 34.8979C17.7229 34.1144 18.358 33.4793 19.1415 33.4793C19.9249 33.4793 20.56 34.1144 20.56 34.8979C20.56 35.6813 19.9268 36.3164 19.1415 36.3164ZM21.1706 29.2876C21.1706 29.3702 21.103 29.436 21.0203 29.436H17.2645C17.1818 29.436 17.1142 29.3684 17.1142 29.2876V20.8045C17.1142 20.7219 17.1818 20.6542 17.2645 20.6542H17.9033L19.0005 21.7515C19.0795 21.8304 19.2072 21.8304 19.2861 21.7515L20.3815 20.6561H21.0203C21.103 20.6561 21.1706 20.7237 21.1706 20.8064V29.2876Z" fill="white"/>
<path d="M20.5618 23.2375H17.7229C17.5669 23.2375 17.441 23.1116 17.441 22.9557C17.441 22.7998 17.5669 22.6738 17.7229 22.6738H20.5618C20.7178 22.6738 20.8437 22.7998 20.8437 22.9557C20.8437 23.1116 20.7178 23.2375 20.5618 23.2375Z" fill="white"/>
<path d="M20.5618 24.489H17.7229C17.5669 24.489 17.441 24.3631 17.441 24.2072C17.441 24.0512 17.5669 23.9253 17.7229 23.9253H20.5618C20.7178 23.9253 20.8437 24.0512 20.8437 24.2072C20.8437 24.3631 20.7178 24.489 20.5618 24.489Z" fill="white"/>
<path d="M20.5618 25.7419H17.7229C17.5669 25.7419 17.441 25.616 17.441 25.46C17.441 25.3041 17.5669 25.1782 17.7229 25.1782H20.5618C20.7178 25.1782 20.8437 25.3041 20.8437 25.46C20.8437 25.616 20.7178 25.7419 20.5618 25.7419Z" fill="white"/>
<path d="M20.5618 26.9953H17.7229C17.5669 26.9953 17.441 26.8694 17.441 26.7135C17.441 26.5575 17.5669 26.4316 17.7229 26.4316H20.5618C20.7178 26.4316 20.8437 26.5575 20.8437 26.7135C20.8437 26.8694 20.7178 26.9953 20.5618 26.9953Z" fill="white"/>
<path d="M20.5618 28.2467H17.7229C17.5669 28.2467 17.441 28.1209 17.441 27.9649C17.441 27.809 17.5669 27.6831 17.7229 27.6831H20.5618C20.7178 27.6831 20.8437 27.809 20.8437 27.9649C20.8437 28.1209 20.7178 28.2467 20.5618 28.2467Z" fill="white"/>
<path d="M29.0393 19.0835H23.9006C23.585 19.0835 23.3276 19.3409 23.3276 19.6584V37.1638C23.3276 37.4813 23.585 37.7368 23.9006 37.7368H29.0393C29.3569 37.7368 29.6124 37.4794 29.6124 37.1638V19.6584C29.6124 19.3409 29.355 19.0835 29.0393 19.0835ZM26.4691 36.3164C25.6856 36.3164 25.0505 35.6813 25.0505 34.8979C25.0505 34.1144 25.6856 33.4793 26.4691 33.4793C27.2525 33.4793 27.8876 34.1144 27.8876 34.8979C27.8876 35.6813 27.2545 36.3164 26.4691 36.3164ZM28.4983 29.2876C28.4983 29.3702 28.4306 29.436 28.348 29.436H24.5921C24.5094 29.436 24.4418 29.3684 24.4418 29.2876V20.8045C24.4418 20.7219 24.5094 20.6542 24.5921 20.6542H25.2309L26.3282 21.7515C26.4071 21.8304 26.5348 21.8304 26.6137 21.7515L27.7091 20.6561H28.348C28.4306 20.6561 28.4983 20.7237 28.4983 20.8064V29.2876Z" fill="white"/>
<path d="M27.8894 23.2375H25.0504C24.8945 23.2375 24.7686 23.1116 24.7686 22.9557C24.7686 22.7998 24.8945 22.6738 25.0504 22.6738H27.8894C28.0453 22.6738 28.1712 22.7998 28.1712 22.9557C28.1712 23.1116 28.0453 23.2375 27.8894 23.2375Z" fill="white"/>
<path d="M27.8894 24.489H25.0504C24.8945 24.489 24.7686 24.3631 24.7686 24.2072C24.7686 24.0512 24.8945 23.9253 25.0504 23.9253H27.8894C28.0453 23.9253 28.1712 24.0512 28.1712 24.2072C28.1712 24.3631 28.0453 24.489 27.8894 24.489Z" fill="white"/>
<path d="M27.8894 25.7419H25.0504C24.8945 25.7419 24.7686 25.616 24.7686 25.46C24.7686 25.3041 24.8945 25.1782 25.0504 25.1782H27.8894C28.0453 25.1782 28.1712 25.3041 28.1712 25.46C28.1712 25.616 28.0453 25.7419 27.8894 25.7419Z" fill="white"/>
<path d="M27.8894 26.9953H25.0504C24.8945 26.9953 24.7686 26.8694 24.7686 26.7135C24.7686 26.5575 24.8945 26.4316 25.0504 26.4316H27.8894C28.0453 26.4316 28.1712 26.5575 28.1712 26.7135C28.1712 26.8694 28.0453 26.9953 27.8894 26.9953Z" fill="white"/>
<path d="M27.8894 28.2467H25.0504C24.8945 28.2467 24.7686 28.1209 24.7686 27.9649C24.7686 27.809 24.8945 27.6831 25.0504 27.6831H27.8894C28.0453 27.6831 28.1712 27.809 28.1712 27.9649C28.1712 28.1209 28.0453 28.2467 27.8894 28.2467Z" fill="white"/>
<path d="M39.9875 35.9873L36.3877 18.8559C36.3219 18.5459 36.0194 18.3467 35.7094 18.4125L30.6815 19.4703C30.3715 19.536 30.1724 19.8385 30.2381 20.1485L33.838 37.28C33.9038 37.59 34.2063 37.7891 34.5163 37.7234L39.5441 36.6675C39.8542 36.6017 40.0533 36.2974 39.9875 35.9873ZM33.4867 29.4602C33.4059 29.4771 33.3269 29.4263 33.3101 29.3456L31.5646 21.0429C31.5477 20.9621 31.5984 20.8832 31.6792 20.8663L32.303 20.7347L33.6013 21.5821C33.6952 21.6441 33.8211 21.6178 33.8812 21.5239L34.7286 20.2256L35.3524 20.094C35.4332 20.0771 35.5121 20.1279 35.529 20.2087L37.2745 28.5113C37.2914 28.5922 37.2406 28.6711 37.1599 28.688L33.4867 29.4602ZM36.739 35.8051C35.9724 35.9667 35.219 35.4744 35.0574 34.7078C34.8958 33.9413 35.3881 33.1879 36.1547 33.0263C36.9212 32.8646 37.6747 33.3569 37.8362 34.1235C37.9978 34.892 37.5056 35.6454 36.739 35.8051Z" fill="white"/>
<path d="M32.6016 23.3051C32.472 23.3051 32.3536 23.213 32.3255 23.0815C32.2935 22.9294 32.3912 22.7791 32.5434 22.7471L35.3204 22.1628C35.4725 22.1308 35.6228 22.2286 35.6548 22.3807C35.6867 22.5329 35.589 22.6832 35.4368 22.7152L32.6599 23.2995C32.6411 23.3014 32.6204 23.3051 32.6016 23.3051Z" fill="white"/>
<path d="M32.8591 24.5302C32.7295 24.5302 32.6111 24.4381 32.5829 24.3066C32.551 24.1545 32.6486 24.0042 32.8009 23.9722L35.5778 23.3879C35.73 23.3559 35.8803 23.4537 35.9122 23.6058C35.9442 23.758 35.8465 23.9083 35.6943 23.9403L32.9173 24.5246C32.8985 24.5283 32.8779 24.5302 32.8591 24.5302Z" fill="white"/>
<path d="M33.1165 25.7553C32.9868 25.7553 32.8685 25.6632 32.8403 25.5317C32.8084 25.3796 32.906 25.2293 33.0582 25.1973L35.8352 24.613C35.9874 24.581 36.1377 24.6788 36.1696 24.8309C36.2015 24.9831 36.1039 25.1334 35.9517 25.1654L33.1747 25.7497C33.1559 25.7534 33.1372 25.7553 33.1165 25.7553Z" fill="white"/>
<path d="M33.3738 26.9819C33.2442 26.9819 33.1258 26.8898 33.0976 26.7583C33.0657 26.6061 33.1634 26.4558 33.3156 26.4239L36.0926 25.8395C36.2447 25.8076 36.395 25.9053 36.427 26.0575C36.4589 26.2097 36.3612 26.36 36.209 26.3919L33.432 26.9762C33.4133 26.98 33.3945 26.9819 33.3738 26.9819Z" fill="white"/>
<path d="M33.6331 28.207C33.5034 28.207 33.385 28.1149 33.3569 27.9834C33.3249 27.8313 33.4227 27.6809 33.5748 27.649L36.3518 27.0646C36.504 27.0327 36.6543 27.1304 36.6862 27.2826C36.7182 27.4348 36.6205 27.5851 36.4683 27.6171L33.6913 28.2014C33.6706 28.2051 33.6519 28.207 33.6331 28.207Z" fill="white"/>
</g>
<defs>
<clipPath id="clip0">
<rect width="24" height="24" fill="white" transform="translate(16 16)"/>
</clipPath>
</defs>
</svg>
