<svg width="360" height="231" viewBox="0 0 360 231" fill="none" xmlns="http://www.w3.org/2000/svg">
<path d="M360 213C218.918 236.146 140.077 236.169 0 213V0H360V213Z" fill="#91C9F3"/>
<path d="M360 208C218.918 231.146 140.077 231.169 0 208V0H360V208Z" fill="#47A3EA"/>
<mask id="mask0" mask-type="alpha" maskUnits="userSpaceOnUse" x="0" y="0" width="360" height="226">
<path d="M360 208C218.918 231.146 140.077 231.169 0 208V0H360V208Z" fill="#47A3EA"/>
</mask>
<g mask="url(#mask0)">
<path d="M363 329.532C396.6 334.344 428.937 360.646 460.836 349.056C493.166 337.309 512.122 302.743 524.725 270.77C536.946 239.764 542.875 203.822 530.236 172.983C518.331 143.935 485.328 131.659 460.062 112.994C440.41 98.4757 420.825 86.0166 398.64 75.7661C372.631 63.7489 347.651 44.758 319.167 47.8947C289.163 51.1986 263.084 70.643 242.757 92.9321C222.117 115.565 210.377 144.221 204.009 174.168C197.303 205.704 190.447 240.313 205.333 268.919C220.056 297.208 251.881 311.948 281.671 323.401C307.568 333.357 335.532 325.599 363 329.532Z" fill="#64BFFF"/>
<path d="M0 176.314C22.4785 178.91 43.5854 165.508 62.0901 152.5C80.0377 139.883 97.0334 124.201 103.797 103.347C110.274 83.3798 104.236 61.9612 97.9518 41.9331C92.4266 24.3238 83.1303 8.39075 69.9468 -4.53794C57.4914 -16.7528 41.3386 -23.013 25.1294 -29.4824C7.26453 -36.6127 -10.4751 -47.3224 -29.46 -44.2131C-49.2452 -40.9726 -64.5215 -26.2162 -79.0536 -12.4196C-94.8963 2.62133 -117.049 17.3276 -117.275 39.1582C-117.504 61.2766 -92.0407 73.9006 -80.1423 92.5564C-70.3224 107.953 -66.129 125.954 -53.5012 139.151C-38.1828 155.161 -22.0245 173.77 0 176.314Z" fill="#008AED"/>
</g>
</svg>
