<svg width="56" height="55" viewBox="0 0 56 55" fill="none" xmlns="http://www.w3.org/2000/svg">
<rect x="0.5" width="55" height="55" rx="25" fill="#FCA311"/>
<path d="M25.192 26.3345H22.972V28.5545H25.192V26.3345Z" fill="white"/>
<path d="M29.0345 26.3345H26.8145V28.5545H29.0345V26.3345Z" fill="white"/>
<path d="M21.352 29.8816H19.132V32.1016H21.352V29.8816Z" fill="white"/>
<path d="M25.192 29.8816H22.972V32.1016H25.192V29.8816Z" fill="white"/>
<path d="M21.352 33.429H19.132V35.649H21.352V33.429Z" fill="white"/>
<path d="M25.192 33.429H22.972V35.649H25.192V33.429Z" fill="white"/>
<path d="M32.8744 26.3345H30.6544V28.5545H32.8744V26.3345Z" fill="white"/>
<path d="M21.1887 22.3961C20.4687 22.3961 19.8879 21.8129 19.8879 21.0953V17.9009C19.8879 17.1809 20.4711 16.6001 21.1887 16.6001C21.9087 16.6001 22.4896 17.1833 22.4896 17.9009V21.0953C22.492 21.8153 21.9087 22.3961 21.1887 22.3961Z" fill="white"/>
<path d="M30.652 22.3961C29.932 22.3961 29.3512 21.8129 29.3512 21.0953V17.9009C29.3512 17.1809 29.9344 16.6001 30.652 16.6001C31.372 16.6001 31.9528 17.1833 31.9528 17.9009V21.0953C31.9528 21.8153 31.3696 22.3961 30.652 22.3961Z" fill="white"/>
<path d="M35.8408 25.3431V20.5527C35.8408 19.7271 35.1688 19.0527 34.3408 19.0527H32.7016V21.2103C32.7016 22.2783 31.8328 23.1447 30.7672 23.1447H30.5368C29.4688 23.1447 28.6024 22.2759 28.6024 21.2103V19.0527H23.2408V21.2103C23.2408 22.2783 22.372 23.1447 21.304 23.1447H21.0736C20.0056 23.1447 19.1368 22.2759 19.1368 21.2103V19.0527H17.5C16.672 19.0527 16 19.7271 16 20.5527V37.3959C16 38.2239 16.672 38.8959 17.5 38.8959H34.3432C35.1688 38.8959 35.8432 38.2239 35.8432 37.3959V33.5199L34.6432 34.8855V37.3959C34.6432 37.5615 34.5088 37.6959 34.3432 37.6959H17.5C17.332 37.6959 17.2 37.5615 17.2 37.3959V24.6159H34.6432V26.7063L35.8408 25.3431Z" fill="white"/>
<path d="M31.5016 37.0983L25.744 31.8759L28.1632 29.2119L31.2112 31.9767L37.2976 25.0503L40 27.4239L31.5016 37.0983Z" fill="white"/>
</svg>
