<svg width="32" height="32" viewBox="0 0 32 32" fill="none" xmlns="http://www.w3.org/2000/svg">
<path d="M0.5 16C0.5 7.44414 7.44414 0.5 16 0.5C24.5559 0.5 31.5 7.44414 31.5 16C31.5 24.5559 24.5559 31.5 16 31.5C7.44414 31.5 0.5 24.5559 0.5 16Z" fill="white" stroke="#0094DC"/>
<path d="M20 17H17V20C17 20.55 16.55 21 16 21C15.45 21 15 20.55 15 20V17H12C11.45 17 11 16.55 11 16C11 15.45 11.45 15 12 15H15V12C15 11.45 15.45 11 16 11C16.55 11 17 11.45 17 12V15H20C20.55 15 21 15.45 21 16C21 16.55 20.55 17 20 17Z" fill="#0094DC"/>
</svg>
