<svg width="40" height="40" viewBox="0 0 40 40" fill="none" xmlns="http://www.w3.org/2000/svg">
    <path
        d="M9.58336 11.0105C16.4642 10.9891 23.3459 11.008 30.2275 11.002C31.1205 10.9858 31.8982 11.807 31.8761 12.6906C31.8743 16.8755 31.8751 21.0602 31.8761 25.2443C31.894 26.1287 31.1137 26.938 30.2241 26.932C23.421 26.9346 16.6179 26.932 9.81469 26.9329C8.94397 26.9576 8.13971 26.2056 8.12522 25.3313C8.11929 21.1183 8.1244 16.9062 8.12267 12.6932C8.0945 11.8702 8.76551 11.0993 9.58336 11.0105ZM19.8517 12.0521C20.0087 12.1297 20.1847 12.134 20.3315 12.0306C20.363 11.9573 20.3955 11.8847 20.4287 11.8122C20.3818 11.6405 20.2666 11.4263 20.0531 11.4673C19.7655 11.4937 19.6844 11.8463 19.8517 12.0521ZM9.76091 12.4029C9.5748 12.4166 9.49458 12.6214 9.5202 12.7845C9.52275 16.9386 9.51418 21.0936 9.52448 25.2476C9.5057 25.4483 9.72591 25.5618 9.90091 25.5362C16.6452 25.5354 23.3894 25.5379 30.1328 25.5346C30.3001 25.5499 30.4845 25.4338 30.4555 25.2476C30.4606 21.0629 30.4597 16.8763 30.4564 12.6914C30.4947 12.4601 30.2412 12.3645 30.0534 12.3944C23.2895 12.4021 16.524 12.3841 9.76091 12.4029Z"
        fill="#999999" />
    <path
        d="M13.1552 17.251C15.4602 16.4562 17.7669 15.6657 20.0727 14.8726C20.1871 14.8231 20.3075 14.8837 20.4176 14.917C22.3325 15.5803 24.2499 16.2351 26.1665 16.895C26.5199 17.0197 26.8844 17.1195 27.2199 17.2894C26.9902 17.3424 26.7666 17.4175 26.5463 17.4986C24.5914 18.1688 22.6372 18.8398 20.684 19.5134C20.5098 19.5697 20.3408 19.6448 20.1598 19.6747C18.2945 19.0515 16.4411 18.3907 14.5758 17.7676C14.5758 18.1534 14.5698 18.5401 14.5809 18.926C14.7602 18.9772 14.9053 19.1471 14.889 19.3392C14.8848 19.5236 14.6569 19.6286 14.6953 19.8215C14.7729 20.8869 14.9326 21.9447 15.018 23.0092C14.6594 23.0084 14.3009 23.0092 13.9423 23.0084C14.0644 21.9028 14.1779 20.7964 14.3009 19.6901C14.166 19.574 14.02 19.3896 14.0994 19.2017C14.1361 19.0583 14.2837 18.9943 14.3785 18.8944C14.405 18.4965 14.3785 18.0962 14.3905 17.6984C13.9824 17.5396 13.5487 17.4431 13.1552 17.251Z"
        fill="#999999" />
    <path
        d="M20.6413 19.9384C21.8596 19.5227 23.0753 19.0949 24.296 18.6861C24.2943 19.8163 24.3063 20.9484 24.2909 22.0787L24.2713 22.1111C21.5812 22.7189 18.764 22.7027 16.0723 22.1153C16.068 20.9713 16.0613 19.8274 16.0766 18.6843C17.3828 19.1462 18.6992 19.5798 20.0053 20.0426C20.2221 20.1373 20.4356 19.9999 20.6413 19.9384Z"
        fill="#999999" />
    <path
        d="M6.00033 27.1815C9.18978 27.179 12.3792 27.1824 15.5695 27.1798C15.5729 27.4881 15.8 27.8031 16.1329 27.78C18.7213 27.7808 21.3097 27.7851 23.8973 27.7774C24.2098 27.78 24.43 27.482 24.4079 27.1841C27.6058 27.1773 30.8029 27.1807 34 27.1824C33.9906 27.8739 33.4076 28.5082 32.7041 28.5107C24.2507 28.5167 15.7974 28.5116 7.34318 28.5134C6.62613 28.5363 5.98328 27.8995 6.00033 27.1815Z"
        fill="#999999" />
</svg>
