<svg width="24" height="24" viewBox="0 0 24 24" fill="none" xmlns="http://www.w3.org/2000/svg">
<path d="M21.4643 7.1875H2.53571C2.23987 7.1875 2 6.97762 2 6.71875V5.46875C2 5.20988 2.23987 5 2.53571 5H21.4643C21.7601 5 22 5.20988 22 5.46875V6.71875C22 6.97762 21.7601 7.1875 21.4643 7.1875ZM21.4643 13.4375H2.53571C2.23987 13.4375 2 13.2276 2 12.9688V11.7188C2 11.4599 2.23987 11.25 2.53571 11.25H21.4643C21.7601 11.25 22 11.4599 22 11.7188V12.9688C22 13.2276 21.7601 13.4375 21.4643 13.4375ZM21.4643 19.6875H2.53571C2.23987 19.6875 2 19.4776 2 19.2188V17.9688C2 17.7099 2.23987 17.5 2.53571 17.5H21.4643C21.7601 17.5 22 17.7099 22 17.9688V19.2188C22 19.4776 21.7601 19.6875 21.4643 19.6875Z" fill="white"/>
</svg>
