<svg xmlns="http://www.w3.org/2000/svg" viewBox="0 0 314 314" id="vector">
    <path id="path" d="M 0 16 L 13 16 L 13 298 L 0 298 Z" fill="#808080" />
    <path id="path_1" d="M 24.5 16 L 48.5 16 L 48.5 298 L 24.5 298 Z" fill="#808080" />
    <path id="path_2" d="M 57.5 16 L 75.5 16 L 75.5 298 L 57.5 298 Z" fill="#808080" />
    <path id="path_3" d="M 91.5 16 L 101.5 16 L 101.5 298 L 91.5 298 Z" fill="#808080" />
    <path id="path_4" d="M 118 16 L 135 16 L 135 298 L 118 298 Z" fill="#808080" />
    <path id="path_5" d="M 148.5 16 L 164.5 16 L 164.5 298 L 148.5 298 Z" fill="#808080" />
    <path id="path_6" d="M 182 16 L 191 16 L 191 298 L 182 298 Z" fill="#808080" />
    <path id="path_7" d="M 204.5 16 L 228.5 16 L 228.5 298 L 204.5 298 Z" fill="#808080" />
    <path id="path_8" d="M 238 16 L 255 16 L 255 298 L 238 298 Z" fill="#808080" />
    <path id="path_9" d="M 271.5 16 L 281.5 16 L 281.5 298 L 271.5 298 Z" fill="#808080" />
    <path id="path_10" d="M 299 16 L 314 16 L 314 298 L 299 298 Z" fill="#808080" />
</svg>
