<?xml version="1.0" standalone="no"?>
<!DOCTYPE svg PUBLIC "-//W3C//DTD SVG 1.0//EN" "http://www.w3.org/TR/2001/REC-SVG-20010904/DTD/svg10.dtd">
<svg xmlns="http://www.w3.org/2000/svg" xmlns:xlink="http://www.w3.org/1999/xlink" id="body_1" width="205" height="154">

<g transform="matrix(0.1925 0 0 0.1925 25.499998 -0)">
	<g>
		<g>
			<g>
				<g>
                    <path d="M44.31 538.43C 44.300003 563.62 44.24 588.79 44.32 613.97C 65.19 613.89996 86.06 613.99 106.93 613.93C 106.91 608.12 106.9 602.31 106.94 596.5C 94.28 596.17 81.600006 596.49 68.94 596.34C 68.97 592.45 68.96 588.55005 68.94 584.67004C 79.19 584.61005 89.450005 584.74005 99.69 584.62006L99.69 584.62006L100.12 584.22003C 100.270004 578.61005 100.07 572.99005 100.200005 567.38C 89.950005 566.95 79.68001 567.39 69.420006 567.17L69.420006 567.17L69 566.75C 68.86 563.28 68.97 559.82 69 556.35C 81.26 556.3 93.520004 556.32996 105.770004 556.33997C 106.16 550.38995 105.97 544.43 105.89001 538.47C 85.36 538.39 64.83 538.48 44.31 538.43z" stroke="none" fill="#FFFFFF" fill-rule="nonzero" />
				</g>
				<g>
                    <path d="M113.99 538.48C 122.35 563.64996 131.04 588.69995 139.45999 613.86C 147.84 614.07996 156.23 613.91 164.60999 613.95C 173.32999 588.82 182.11998 563.7 190.60999 538.49C 182.27998 538.42 173.93999 538.45 165.60999 538.48C 161.29999 555.13 156.90999 571.74 152.62999 588.39996C 151.31999 585.02997 150.73 581.43 149.68 577.98C 146.28 564.83997 142.62 551.75 139.32999 538.57996C 130.89 538.31 122.43 538.47 113.99 538.48z" stroke="none" fill="#FFFFFF" fill-rule="nonzero" />
				</g>
				<g>
                    <path d="M200.12 538.46C 200.15 563.63 200.11 588.79004 200.15 613.96C 207.93999 613.96 215.73999 613.95 223.54 613.96C 223.62 600.45 223.36 586.94 223.45 573.43005C 225.09999 575.35004 226.31999 577.5801 227.69 579.7001C 235.03 591.1001 242.36 602.5201 249.68001 613.93005C 257.41 613.98004 265.15 613.9601 272.88 613.94006C 272.87 588.79004 272.85 563.6401 272.89 538.48004C 265 538.39 257.11002 538.47003 249.21002 538.44006C 249.06003 551.7601 249.24002 565.0901 249.12003 578.41003C 247.07002 576.15 245.78003 573.34 244.03003 570.86005C 237.17003 560.06006 230.06003 549.43005 223.38004 538.52C 215.63 538.35 207.87 538.46 200.12 538.46z" stroke="none" fill="#FFFFFF" fill-rule="nonzero" />
				</g>
				<g>
                    <path d="M44.31 538.43C 64.840004 538.48 85.36 538.39 105.89 538.48C 105.979996 544.43 106.17 550.39996 105.77 556.35C 93.509995 556.33997 81.25 556.31 69 556.36C 68.97 559.82996 68.86 563.29 69 566.76L69 566.76L69.42 567.17C 79.68 567.38995 89.95 566.95 100.2 567.38C 100.07 572.99 100.27 578.61 100.119995 584.22003L100.119995 584.22003L99.689995 584.62006C 89.439995 584.75006 79.189995 584.61005 68.939995 584.67004C 68.95999 588.56006 68.96999 592.4501 68.939995 596.34C 81.59999 596.49005 94.28 596.17004 106.939995 596.5C 106.899994 602.31 106.909996 608.12 106.92999 613.93C 86.05999 613.99 65.18999 613.89996 44.319992 613.97C 44.23 588.79 44.3 563.62 44.31 538.43z" stroke="none" fill="#2C56A6" fill-rule="nonzero" />
				</g>
				<g>
                    <path d="M113.99 538.48C 122.43 538.47 130.89 538.32 139.34 538.56C 142.62 551.73 146.29 564.82 149.69 577.96C 150.74 581.41003 151.33 585.01 152.64 588.38C 156.91 571.73 161.31 555.11 165.62 538.46C 173.95 538.43 182.29 538.41003 190.62 538.47003C 182.12999 563.68005 173.34999 588.80005 164.62 613.93005C 156.23999 613.8901 147.84999 614.07007 139.47 613.84C 131.04 588.7 122.35 563.64 113.99 538.48z" stroke="none" fill="#2C56A6" fill-rule="nonzero" />
				</g>
				<g>
                    <path d="M200.12 538.46C 207.87 538.47003 215.62999 538.36005 223.37999 538.52C 230.05998 549.42004 237.16998 560.06 244.02998 570.86005C 245.77998 573.34 247.06998 576.15 249.11998 578.41003C 249.23997 565.09 249.05998 551.76 249.20998 538.44006C 257.11 538.4701 264.99997 538.3901 272.88998 538.48004C 272.84998 563.63007 272.87997 588.78 272.87997 613.94006C 265.14996 613.9601 257.40997 613.98004 249.67998 613.93005C 242.36998 602.5101 235.02998 591.10004 227.68997 579.7001C 226.31998 577.5801 225.09998 575.3501 223.44997 573.43005C 223.36996 586.94006 223.62996 600.4501 223.53996 613.9601C 215.73996 613.9501 207.93996 613.9601 200.14996 613.9601C 200.1 588.79 200.14 563.62 200.12 538.46z" stroke="none" fill="#2C56A6" fill-rule="nonzero" />
				</g>
			</g>
			<g>
                <path d="M354.46 614.17L339.08 614.17L339.44998 607.01996C 338.25998 608.17 336.90997 609.27997 335.38998 610.35C 333.87 611.42 332.15 612.36 330.22998 613.18C 328.30997 614 326.16998 614.66 323.81998 615.14996C 321.46997 615.63995 318.86 615.88995 315.99997 615.88995C 312.90997 615.88995 309.94998 615.5499 307.12997 614.87994C 304.30997 614.20996 301.70996 613.18994 299.33997 611.81995C 296.96997 610.45996 294.86996 608.74994 293.04996 606.68994C 291.22995 604.63995 289.76996 602.2299 288.67996 599.47C 287.58997 596.70996 286.90997 593.58997 286.62997 590.1C 286.36 586.62 286.58997 582.75 287.33997 578.50995C 288.36996 572.68994 290.17996 567.38995 292.78998 562.58997C 295.38998 557.79 298.63998 553.68 302.52997 550.24C 306.41998 546.81 310.88995 544.14 315.91998 542.23C 320.96 540.32 326.40997 539.37 332.3 539.37C 336.66998 539.37 340.68 539.94 344.31998 541.07C 347.96997 542.2 351.11 543.9 353.74997 546.15C 356.38998 548.4 358.43997 551.2 359.87997 554.56C 361.33 557.91 362.02 561.82 361.94998 566.29L361.94998 566.29L339.37 566.29C 339.04 563.3 337.96 561.01996 336.13998 559.45996C 334.31 557.89996 331.84998 557.11993 328.75998 557.11993C 326.38998 557.11993 324.25998 557.62994 322.34998 558.64996C 320.43997 559.67 318.74997 561.11 317.27997 562.95996C 315.79996 564.81995 314.54996 567.05994 313.52997 569.68994C 312.50998 572.31995 311.71997 575.2299 311.14996 578.4199C 310.69995 580.9799 310.48996 583.4599 310.52997 585.8399C 310.56998 588.2199 311.00998 590.3199 311.85995 592.1299C 312.70996 593.9399 314.00995 595.3799 315.77997 596.4699C 317.53998 597.5499 319.91998 598.0999 322.90997 598.0999C 324.12997 598.0999 325.42996 597.8999 326.80997 597.5099C 328.18997 597.1199 329.52997 596.54987 330.80997 595.8099C 332.08997 595.0699 333.24997 594.1899 334.27997 593.16986C 335.30997 592.14984 336.08997 590.9999 336.60995 589.71985L336.60995 589.71985L326.10995 589.71985L328.87994 573.98987L361.51996 573.98987L354.46 614.17z" stroke="none" fill="#ED2928" fill-rule="nonzero" />
                <path d="M368.94 613.97L381.76 541.25L441.02002 541.25L438.02002 558.26L402.57 558.26L400.74002 568.61L430.71002 568.61L427.71002 585.62L397.74002 585.62L395.73 597.01L432.56 597.01L429.57 613.97003L368.94 613.97003L368.94 613.97z" stroke="none" fill="#ED2928" fill-rule="nonzero" />
                <path d="M495.2 580.94L497.23 564.38L501.31 541.26L524.14 541.26L511.32 613.98L488.99002 613.98L470.04 574.38995L468 590.95L463.94 613.97003L441.11002 613.97003L453.93002 541.25L476.26 541.25L495.2 580.94z" stroke="none" fill="#ED2928" fill-rule="nonzero" />
                <path d="M578.59 569.06C 578.9 565.25 578.11005 562.31 576.23004 560.24C 574.34 558.17 571.53 557.13 567.78 557.13C 563.57 557.13 559.97003 558.9 556.96 562.45C 553.95 566 551.83 571.29004 550.59 578.32C 550.14 580.88 549.88 583.35004 549.83 585.71C 549.77 588.08 550.10004 590.18 550.81 592.02C 551.52 593.86005 552.72 595.33 554.39 596.43C 556.07 597.52997 558.42004 598.08 561.44 598.08C 563.35 598.08 565.08 597.77 566.63 597.14C 568.19 596.52 569.55 595.65 570.73 594.55C 571.91 593.45 572.92 592.14996 573.76 590.66C 574.60004 589.17 575.29004 587.55 575.82 585.8L575.82 585.8L598.74 585.8C 597.38 590.5 595.44 594.70996 592.89 598.42C 590.35004 602.13 587.34 605.29 583.88 607.88995C 580.42 610.4899 576.55 612.47 572.28 613.82996C 568.01 615.18994 563.48004 615.87994 558.68005 615.87994C 552.67004 615.87994 547.43005 614.9899 542.98004 613.22C 538.53 611.44995 534.93005 608.89996 532.2 605.57996C 529.47003 602.25995 527.64 598.23 526.71 593.49994C 525.79004 588.76996 525.85004 583.43994 526.89 577.52997C 527.93 571.64996 529.8 566.35 532.5 561.62994C 535.2 556.91 538.48 552.89996 542.34 549.5999C 546.19 546.2999 550.48004 543.7699 555.19 542.0099C 559.9 540.2499 564.79 539.3699 569.85 539.3699C 575.39996 539.3699 580.22 540.03986 584.31 541.3899C 588.39 542.73987 591.75 544.6799 594.38 547.2099C 597.01 549.7399 598.88 552.8499 600.01 556.5299C 601.14 560.2099 601.53 564.3899 601.2 569.0499L601.2 569.0499L578.59 569.0499L578.59 569.06z" stroke="none" fill="#ED2928" fill-rule="nonzero" />
                <path d="M651.95 539.38C 656.26 539.38 660.10004 539.87 663.5 540.86C 666.89 541.85 669.85 543.2 672.37 544.93C 674.89 546.66 676.99 548.71 678.68 551.08997C 680.36 553.47 681.64996 556.06995 682.52997 558.87994C 683.41 561.68994 683.93 564.66 684.06995 567.77997C 684.20996 570.89996 683.99994 574.06 683.43994 577.24994C 682.3499 583.42993 680.39996 588.9199 677.5999 593.7199C 674.7999 598.5199 671.3899 602.55994 667.37994 605.8499C 663.36993 609.1399 658.87994 611.62994 653.92993 613.3399C 648.9799 615.0499 643.81995 615.8999 638.4699 615.8999C 632.74994 615.8999 627.7099 615.0399 623.3499 613.3099C 618.9899 611.5799 615.42993 609.0599 612.67993 605.73987C 609.92993 602.41986 608.06995 598.33984 607.0999 593.5099C 606.12994 588.6799 606.18994 583.16986 607.2799 576.98987C 608.2799 571.29987 610.1099 566.1399 612.7699 561.5099C 615.4299 556.8799 618.7199 552.91986 622.6499 549.6499C 626.5799 546.3799 631.0299 543.8499 636.0199 542.0599C 640.98 540.28 646.3 539.38 651.95 539.38zM648.63 557.13C 645.94 557.13 643.57 557.75 641.55 558.98C 639.51996 560.20996 637.8 561.8 636.37 563.74C 634.94 565.68 633.8 567.83997 632.93 570.22C 632.07 572.6 631.43 574.94995 631.02997 577.24C 630.75995 578.79 630.56995 580.37 630.45996 582C 630.35 583.63 630.36993 585.21 630.50995 586.76C 630.64996 588.31 630.94995 589.77 631.41 591.15C 631.87 592.53 632.55 593.73004 633.44 594.75C 634.33 595.77 635.43 596.58 636.76 597.19C 638.08 597.8 639.7 598.1 641.60004 598.1C 644.16003 598.1 646.45 597.57996 648.46 596.51996C 650.47003 595.47 652.21 594.00995 653.69 592.16C 655.17 590.3 656.39 588.1 657.37 585.55C 658.33997 583 659.1 580.23 659.62 577.24C 660.05 574.77997 660.22 572.33 660.13 569.89996C 660.03 567.47 659.57 565.29 658.74 563.36993C 657.91 561.44995 656.68 559.9099 655.04 558.75995C 653.41 557.61 651.27 557.07 648.63 557.13z" stroke="none" fill="#ED2928" fill-rule="nonzero" />
                <path d="M686.57 613.97C 686.84 611.89996 687.29 609.95996 687.94 608.14996C 688.59 606.33997 689.43 604.61993 690.46 602.97C 691.49005 601.32996 692.69 599.75 694.06 598.24C 695.43 596.73 696.95 595.23 698.62 593.75C 700.96 591.68 703.42 589.8 706 588.11C 708.58 586.42 711.14 584.82 713.67 583.32996C 716.2 581.82996 718.63 580.38995 720.97 578.9899C 723.3 577.5899 725.39996 576.1599 727.26996 574.69995C 729.13995 573.2399 730.68994 571.69995 731.92993 570.08997C 733.1699 568.48 733.95996 566.68994 734.30994 564.72C 734.50995 563.56995 734.44995 562.55 734.1099 561.66C 733.7699 560.76996 733.25995 560.01996 732.55994 559.38995C 731.8599 558.76996 731.0299 558.2999 730.0499 557.98C 729.06995 557.67 728.0499 557.51 726.99994 557.51C 724.95996 557.51 723.20996 557.9 721.7399 558.67C 720.26996 559.44 719.0299 560.47 718.01996 561.75C 717.00995 563.03 716.19995 564.49 715.6 566.14C 715 567.78 714.56 569.46 714.29 571.17004L714.29 571.17004L695.4 571.17004C 696.39 565.94006 697.92004 561.47003 700.01 557.7601C 702.09 554.05005 704.64 551.0101 707.66003 548.6401C 710.67004 546.2701 714.13 544.5401 718.02 543.44006C 721.91003 542.3401 726.17004 541.79004 730.81 541.79004C 734.49 541.79004 737.97 542.21 741.26 543.05005C 744.55 543.8901 747.35004 545.24005 749.67 547.09C 751.99 548.95 753.69 551.33 754.76996 554.24005C 755.85 557.15 756.02997 560.67004 755.3 564.81006C 754.75 567.93005 753.72 570.6401 752.20996 572.94006C 750.69995 575.24005 748.91 577.2801 746.81995 579.05005C 744.7299 580.82007 742.42993 582.44006 739.92993 583.88007C 737.4199 585.3301 734.87994 586.7701 732.2899 588.2201C 729.43994 589.8301 726.6099 591.3301 723.7999 592.7301C 720.9899 594.1301 718.5299 595.4801 716.42993 596.8001L716.42993 596.8001L749.45996 596.8001L746.42993 613.9601L686.57 613.9601L686.57 613.97z" stroke="none" fill="#ED2928" fill-rule="nonzero" />
			</g>
		</g>
		<g>
			<g>
                <path d="M381.89 190.72C 348.97003 193.42 317.26 208.31 294.05002 231.79001C 272.52002 253.12001 258.23 281.6 253.98001 311.6C 248.96 345.33002 256.72 380.77002 275.45 409.28C 294.54 438.79 324.97 460.74 359.05002 469.37C 376.30002 473.76 394.38 475.05 412.03003 472.71C 439.70004 469.35 466.21002 457.43 487.23004 439.13998C 507.78003 421.37 523.09 397.59998 530.61005 371.47998C 539.21 342.00998 537.85004 309.77997 526.78 281.13998C 519.09 261.13998 506.80002 242.90999 491.09003 228.31998C 462.22 201.03 421.44 186.94 381.89 190.72zM379.11 184.56C 386.31 183.91 393.55 184.15 400.75998 184.12C 409.16998 184.14 417.50998 185.53 425.72998 187.20999C 452.74997 192.96999 477.97998 206.62 497.74997 225.9C 521.8 249.28 537.58997 281.01 541.39996 314.34998C 544.91 343.72998 539.49994 374.16998 525.72 400.39996C 514.08997 422.72995 496.66998 441.98996 475.61996 455.78998C 450.90997 472.13998 421.15997 480.68997 391.53998 479.97998C 360.24 479.62 329.24 468.71 304.43997 449.65997C 285.97998 435.58997 270.91998 417.09998 260.86 396.16998C 252.43 378.59998 247.43999 359.34998 246.47998 339.87997C 246.34998 331.33 246.10999 322.70996 247.32999 314.21997C 250.49998 286.91998 261.62 260.63995 278.87 239.25998C 298.76 214.38998 326.88998 196.18997 357.8 188.44998C 364.78 186.59 371.94 185.49 379.11 184.56z" stroke="none" fill="#2C56A6" fill-rule="nonzero" />
			</g>
			<g>
                <path d="M391.07 253.91C 386.1 274.37 381.31 294.87 376.26 315.31C 354.93002 320.44 333.6 325.61 312.25 330.69C 310.8 331.15 308.95 331.01 307.92 332.3C 328.97 337.09998 349.92 342.34998 370.96002 347.22998C 372.76 347.61 374.54 348.09998 376.28003 348.69998C 381.70004 371.74997 387.34003 394.74997 392.77002 417.8C 393.07 417.34998 393.31003 416.87 393.49002 416.37C 398.86002 393.62 404.34003 370.88998 409.80002 348.16C 432.52002 342.80002 455.25003 337.47 478.01 332.30002C 477.6 331.83002 477.09 331.51 476.49002 331.35C 454.99002 326.22 433.52002 320.9 412.01 315.77002C 411.12 315.52002 410.25 315.22003 409.38 314.93002C 403.96 292.06003 398.69 269.16003 393.24 246.30002C 392 248.66 391.74 251.36 391.07 253.91zM392.13 198.96C 392.68 196.57 392.98 194.12001 393.91 191.83C 402.1 229.46 409.91 267.18 417.99 304.84C 418.21 305.77 418.46 306.69 418.71 307.62C 452.82 314.97998 486.96 322.19998 521.08 329.51C 525.59 330.54 530.17004 331.29 534.63 332.52002C 521.67 335.73 508.5 338.13 495.47 341.06003C 469.92 346.48004 444.38 352.03003 418.81 357.38004C 417.62 361.02005 417.03 364.82004 416.2 368.54004C 409.7 398.96005 403.2 429.38004 396.7 459.80005C 395.61002 464.19006 395.07 468.70004 393.67 473.01004C 391.2 464.10004 389.71002 454.95004 387.62003 445.95004C 381.21002 416.40005 374.99002 386.82004 368.48004 357.30005C 330.89005 349.23004 293.26004 341.29004 255.65004 333.25006C 254.85004 333.07007 254.10004 332.75006 253.35004 332.42007C 275.96002 327.3401 298.65002 322.63007 321.28003 317.68008C 337.08002 314.17007 352.97003 311.0301 368.71002 307.33008C 376.59 271.22 384.3 235.07 392.13 198.96z" stroke="none" fill="#2C56A6" fill-rule="nonzero" />
			</g>
			<g>
                <path d="M385.36 321.86C 385.06998 322.59998 384.91998 323.63998 384.00998 323.86C 375.16998 326.86 365.96 328.75 357.24 332.03998C 366.28 335.14996 375.63998 337.25998 384.71 340.31998C 387.41998 349.36996 390.19998 358.39996 392.77 367.49C 393.15 366.9 393.55 366.3 393.72998 365.61C 395.99997 357.47998 398.49997 349.41998 400.86 341.33C 401.02 340.18 402.13998 339.75 403.11 339.44998C 411.31998 336.9 419.68997 334.84998 427.84 332.12C 426.34 330.88998 424.33 330.69998 422.56 330.12C 416.03 328.13998 409.5 326.19998 402.98 324.21C 402.26 323.86 401.12003 323.78 400.89 322.87C 398.16 314.11 395.95 305.19 393 296.5C 390.31 304.9 387.87 313.39 385.36 321.86zM391.07 253.91C 391.74002 251.36 392 248.66 393.24002 246.31C 398.69003 269.16998 403.96002 292.07 409.38 314.94C 410.25 315.23 411.12 315.54 412.01 315.78C 433.52002 320.91 454.99002 326.22 476.5 331.36C 477.09 331.52 477.6 331.83 478.01 332.31C 455.25 337.48 432.52002 342.81 409.80002 348.16998C 404.34003 370.9 398.86002 393.62997 393.49002 416.37997C 393.31003 416.87997 393.07 417.36 392.77002 417.80997C 387.34003 394.75998 381.7 371.75998 376.28003 348.70996C 374.54004 348.10995 372.76004 347.62997 370.96002 347.23996C 349.92 342.34995 328.97003 337.10995 307.92 332.30997C 308.95 331.00998 310.79 331.15997 312.25 330.69998C 333.6 325.62 354.93 320.44998 376.26 315.31998C 381.32 294.87 386.1 274.36 391.07 253.91z" stroke="none" fill="#ED2928" fill-rule="nonzero" />
			</g>
			<g>
                <path d="M385.36 321.86C 387.87 313.38998 390.31 304.9 393 296.49C 395.95 305.18 398.16 314.09998 400.89 322.86C 401.12003 323.77 402.26 323.84998 402.98 324.19998C 409.5 326.19998 416.03 328.13998 422.56 330.11C 424.34 330.69998 426.34 330.87997 427.84 332.11C 419.69998 334.84998 411.33 336.9 403.11 339.43997C 402.15 339.73996 401.02 340.16998 400.86 341.31998C 398.5 349.40997 396 357.46997 393.72998 365.59998C 393.55 366.28998 393.15 366.88998 392.77 367.47998C 390.21 358.38998 387.41998 349.36 384.71 340.30997C 375.63998 337.24997 366.28 335.13995 357.24 332.02997C 365.96 328.73996 375.16998 326.84998 384.00998 323.84998C 384.92 323.64 385.07 322.6 385.36 321.86z" stroke="none" fill="#E4E428" fill-rule="nonzero" />
			</g>
		</g>
	</g>
</g>
</svg>