<svg width="14" height="17" viewBox="0 0 14 17" fill="none" xmlns="http://www.w3.org/2000/svg">
<path d="M11 10H12V15H11V10Z" fill="#969696"/>
<path d="M9 13V12H14V13H9Z" fill="#969696"/>
<path fill-rule="evenodd" clip-rule="evenodd" d="M2.02134 0.046303C1.55387 0.147706 1.22644 0.304614 0.884033 0.591209C0.519907 0.896013 0.231372 1.3327 0.0873551 1.79697L0 2.07856V8.00757V13.9366L0.0873551 14.2182C0.338689 15.0285 0.973077 15.6629 1.7834 15.9142L2.06499 16.0016H4.3982H6.73138L6.85822 15.9176C7.05355 15.7884 7.13359 15.6354 7.13359 15.3915C7.13359 15.1475 7.05355 14.9945 6.85829 14.8653L6.73151 14.7813L4.47645 14.7657L2.22142 14.7501L2.04146 14.6774C1.69373 14.537 1.43044 14.2616 1.30773 13.91C1.25442 13.7572 1.25151 13.452 1.25151 8.00757C1.25151 2.56314 1.25442 2.25796 1.30773 2.10519C1.43044 1.75355 1.69373 1.47815 2.04146 1.33776L2.22142 1.26508H6.33575H10.4501L10.627 1.33661C10.9527 1.46833 11.2167 1.73233 11.3485 2.05807L11.42 2.235L11.4356 4.87881L11.4513 7.52261L11.5255 7.64204C11.6295 7.80927 11.8008 7.91405 12.0032 7.93423C12.1466 7.9485 12.1957 7.93786 12.3419 7.86086C12.4811 7.78756 12.5291 7.73969 12.6 7.60399L12.6871 7.43726L12.6867 4.86742C12.6864 2.47013 12.6824 2.27833 12.6272 2.01098C12.5197 1.49004 12.2827 1.06403 11.8963 0.696992C11.5247 0.344036 11.157 0.153088 10.645 0.0473355C10.4338 0.00372048 9.92695 -0.00178614 6.3136 0.000403997C2.94786 0.00246898 2.18591 0.0106038 2.02134 0.046303ZM5.77257 2.36641C5.56845 2.44025 5.4846 2.52513 4.81805 3.33276C4.42871 3.80451 4.10228 4.19048 4.09264 4.19048C4.08301 4.19048 3.93258 4.04411 3.75837 3.86524C3.4968 3.59664 3.41718 3.53344 3.30116 3.50221C3.02355 3.4275 2.74421 3.53266 2.58123 3.77319C2.5174 3.86743 2.50304 3.92647 2.50311 4.09433C2.50326 4.35633 2.5613 4.44272 3.08722 4.96353C3.57177 5.44333 3.71566 5.52108 4.11433 5.51842C4.33569 5.51695 4.40912 5.50274 4.55235 5.43366C4.7805 5.32359 4.9467 5.14801 5.78005 4.13648C6.5818 3.1633 6.61527 3.10126 6.51641 2.77127C6.42996 2.4828 6.03908 2.27004 5.77257 2.36641ZM7.5 4.06858C7.35166 4.11248 7.15959 4.31741 7.11638 4.47792C7.04147 4.75606 7.15276 5.04842 7.38961 5.19566L7.50904 5.2699H8.63768H9.76632L9.89316 5.18596C10.0885 5.05671 10.1685 4.90377 10.1685 4.65979C10.1685 4.41584 10.0885 4.26291 9.89322 4.13363L9.76644 4.04968L8.68467 4.04393C8.05645 4.04058 7.55975 4.05094 7.5 4.06858ZM5.65556 6.25859C5.55131 6.31019 5.37106 6.50795 4.81429 7.18158C4.42457 7.65308 4.10209 8.03886 4.09765 8.03886C4.09321 8.03886 3.94303 7.89231 3.76394 7.71319C3.4999 7.44918 3.41198 7.38047 3.29947 7.35016C2.81054 7.2185 2.38631 7.64122 2.51769 8.12916C2.54804 8.24182 2.6317 8.34457 2.99579 8.71624C3.55005 9.28207 3.70005 9.3694 4.11376 9.36711C4.33653 9.36589 4.40852 9.35197 4.55235 9.28239C4.77941 9.1725 4.91492 9.02893 5.767 7.99565C6.31476 7.33141 6.49541 7.091 6.52429 6.98781C6.66906 6.47075 6.1341 6.02171 5.65556 6.25859ZM7.5 7.91696C7.35166 7.96086 7.15959 8.16579 7.11638 8.3263C7.04147 8.60445 7.15276 8.8968 7.38961 9.04404L7.50904 9.11828H8.63768H9.76632L9.89316 9.03434C10.0885 8.90509 10.1685 8.75216 10.1685 8.50817C10.1685 8.26422 10.0885 8.11129 9.89322 7.98201L9.76644 7.89807L8.68467 7.89231C8.05645 7.88896 7.55975 7.89932 7.5 7.91696ZM5.65556 10.0444C5.55131 10.096 5.37106 10.2938 4.81429 10.9674C4.42457 11.4389 4.10209 11.8247 4.09765 11.8247C4.09321 11.8247 3.94303 11.6781 3.76394 11.499C3.4999 11.235 3.41198 11.1663 3.29947 11.136C2.81054 11.0043 2.38631 11.427 2.51769 11.915C2.54804 12.0276 2.6317 12.1304 2.99579 12.502C3.55005 13.0679 3.70005 13.1552 4.11376 13.1529C4.33653 13.1517 4.40852 13.1378 4.55235 13.0682C4.77941 12.9583 4.91492 12.8147 5.767 11.7815C6.31476 11.1172 6.49541 10.8768 6.52429 10.7736C6.66906 10.2566 6.1341 9.80752 5.65556 10.0444Z" fill="#969696"/>
</svg>
