<svg width="16" height="18" viewBox="0 0 16 18" fill="none" xmlns="http://www.w3.org/2000/svg">
<path fill-rule="evenodd" clip-rule="evenodd" d="M8.4181 1.13085C9.14217 0.406779 10.1242 0 11.1482 0C12.1722 0 13.1542 0.406779 13.8783 1.13085C14.6024 1.85492 15.0092 2.83697 15.0092 3.86096C15.0092 4.88495 14.6024 5.867 13.8783 6.59107L7.20008 13.2693C6.99389 13.4756 6.7491 13.6392 6.47967 13.7509C6.21025 13.8625 5.92146 13.92 5.62982 13.9201C5.04081 13.9202 4.47589 13.6863 4.05932 13.2699C3.64275 12.8535 3.40867 12.2886 3.40856 11.6996C3.40845 11.1106 3.64233 10.5457 4.05874 10.1291L10.5375 3.64926L11.3588 4.47055L4.87888 10.9493C4.78039 11.0478 4.70227 11.1647 4.64897 11.2934C4.59567 11.422 4.56823 11.5599 4.56823 11.6992C4.56823 11.8385 4.59567 11.9764 4.64897 12.1051C4.70227 12.2338 4.78039 12.3507 4.87888 12.4492C4.97736 12.5477 5.09428 12.6258 5.22296 12.6791C5.35163 12.7324 5.48955 12.7598 5.62883 12.7598C5.76811 12.7598 5.90602 12.7324 6.0347 12.6791C6.16338 12.6258 6.2803 12.5477 6.37878 12.4492L13.057 5.77093C13.3078 5.52011 13.5068 5.22234 13.6426 4.89463C13.7783 4.56692 13.8482 4.21567 13.8482 3.86096C13.8482 3.50624 13.7783 3.155 13.6426 2.82729C13.5068 2.49957 13.3078 2.20181 13.057 1.95098C12.8062 1.70016 12.5084 1.5012 12.1807 1.36546C11.853 1.22971 11.5018 1.15985 11.147 1.15985C10.7923 1.15985 10.4411 1.22971 10.1134 1.36546C9.78567 1.5012 9.4879 1.70016 9.23707 1.95098L2.36047 8.82875C1.56275 9.64636 1.11936 10.7454 1.1264 11.8877C1.13343 13.03 1.59032 14.1234 2.39804 14.9312C3.20577 15.7389 4.29926 16.1958 5.44154 16.2028C6.58381 16.2099 7.68285 15.7665 8.50046 14.9687L15.1787 8.28934L16 9.11064L9.3206 15.7889C8.28257 16.7896 6.8932 17.3428 5.45141 17.3296C4.00963 17.3163 2.63066 16.7376 1.6112 15.718C0.591742 14.6984 0.013262 13.3194 0.0002252 11.8776C-0.0128116 10.4358 0.540637 9.0465 1.54149 8.00862L8.4181 1.12969V1.13085Z" fill="#969696"/>
</svg>
