<svg width="14" height="12" viewBox="0 0 14 12" fill="none" xmlns="http://www.w3.org/2000/svg">
<path fill-rule="evenodd" clip-rule="evenodd" d="M4.81249 7.28587C6.52995 7.28587 7.92222 5.89359 7.92222 4.17614C7.92222 2.45868 6.52995 1.06641 4.81249 1.06641C3.09503 1.06641 1.70276 2.45868 1.70276 4.17614C1.70276 5.89359 3.09503 7.28587 4.81249 7.28587ZM4.81249 8.35227C7.11891 8.35227 8.98863 6.48255 8.98863 4.17614C8.98863 1.86972 7.11891 0 4.81249 0C2.50607 0 0.636353 1.86972 0.636353 4.17614C0.636353 6.48255 2.50607 8.35227 4.81249 8.35227Z" fill="#969696"/>
<path fill-rule="evenodd" clip-rule="evenodd" d="M8.75 11.375H9.625C9.625 9.92525 7.47037 8.75 4.8125 8.75C2.15463 8.75 0 9.92525 0 11.375H0.875C0.875 11.1204 1.07624 10.6974 1.82854 10.287C2.54776 9.8947 3.60112 9.625 4.8125 9.625C6.02388 9.625 7.07724 9.8947 7.79646 10.287C8.54876 10.6974 8.75 11.1204 8.75 11.375Z" fill="#969696"/>
<path d="M11.375 1.75H12.375V6.125H11.375V1.75Z" fill="#969696"/>
<path d="M9.625 4.375V3.375H14V4.375H9.625Z" fill="#969696"/>
</svg>
