<svg width="14" height="16" viewBox="0 0 14 16" fill="none" xmlns="http://www.w3.org/2000/svg">
<path fill-rule="evenodd" clip-rule="evenodd" d="M7 7.77159C8.83195 7.77159 10.317 6.2865 10.317 4.45455C10.317 2.62259 8.83195 1.1375 7 1.1375C5.16805 1.1375 3.68296 2.62259 3.68296 4.45455C3.68296 6.2865 5.16805 7.77159 7 7.77159ZM7 8.90909C9.46018 8.90909 11.4545 6.91472 11.4545 4.45455C11.4545 1.99437 9.46018 0 7 0C4.53982 0 2.54546 1.99437 2.54546 4.45455C2.54546 6.91472 4.53982 8.90909 7 8.90909Z" fill="#969696"/>
<path fill-rule="evenodd" clip-rule="evenodd" d="M12.6444 13.1066C12.8572 12.8931 12.8625 12.775 12.8625 12.7538C12.8625 12.7326 12.8572 12.6144 12.6444 12.401C12.427 12.1829 12.0553 11.9343 11.5055 11.7011C10.4103 11.2364 8.81807 10.9216 7 10.9216C5.18193 10.9216 3.58974 11.2364 2.4945 11.7011C1.9447 11.9343 1.57303 12.1829 1.35564 12.401C1.14281 12.6144 1.1375 12.7326 1.1375 12.7538C1.1375 12.775 1.14281 12.8931 1.35564 13.1066C1.57303 13.3246 1.9447 13.5733 2.4945 13.8065C3.58974 14.2712 5.18193 14.586 7 14.586C8.81807 14.586 10.4103 14.2712 11.5055 13.8065C12.0553 13.5733 12.427 13.3246 12.6444 13.1066ZM7 15.7235C10.866 15.7235 14 14.3939 14 12.7538C14 11.1137 10.866 9.78409 7 9.78409C3.13401 9.78409 0 11.1137 0 12.7538C0 14.3939 3.13401 15.7235 7 15.7235Z" fill="#969696"/>
</svg>
