<svg width="16" height="16" viewBox="0 0 16 16" fill="none" xmlns="http://www.w3.org/2000/svg">
<path fill-rule="evenodd" clip-rule="evenodd" d="M1.01559 0.0442216C0.553691 0.158672 0.168396 0.541936 0.0434442 1.01124C0.00784635 1.14497 0.000533007 2.21354 0.000220471 7.33041C-0.000185826 14.0694 -0.0106558 13.6776 0.178647 14.0008C0.292254 14.1947 0.525469 14.4198 0.706771 14.5105C0.790687 14.5525 1.80162 14.9017 2.95331 15.2865L5.04731 15.9862L5.32859 15.9861C5.67303 15.9861 5.86578 15.9252 6.1248 15.7345C6.33564 15.5793 6.50222 15.3497 6.59442 15.0874C6.64583 14.9411 6.65687 14.8295 6.65687 14.4558V14.0018L7.83669 14.0013C8.72798 14.0009 9.06708 13.99 9.22326 13.9569C9.86936 13.8199 10.4443 13.2624 10.6099 12.6123C10.6797 12.3381 10.6808 9.07467 10.6111 8.93994C10.5095 8.74348 10.2519 8.62956 10.039 8.68688C9.89487 8.7257 9.72954 8.88934 9.68794 9.0343C9.66962 9.09824 9.65709 9.79076 9.6569 10.7512L9.65659 12.361L9.58302 12.519C9.54258 12.6059 9.44963 12.7282 9.37653 12.7908C9.13687 12.9959 9.09393 13.0017 7.80803 13.0017H6.65759L6.6494 7.66514L6.64124 2.32858L6.54317 2.12159C6.32645 1.66419 6.11208 1.51736 5.23086 1.22276L4.5785 1.00468L6.76851 1.00249C9.20507 1.00005 9.12209 0.993425 9.37653 1.21123C9.44963 1.2738 9.54258 1.3961 9.58302 1.48298L9.65659 1.641L9.65709 3.25056C9.65737 4.24127 9.66975 4.904 9.68925 4.97426C9.73244 5.12972 9.92668 5.30052 10.092 5.32846C10.2582 5.35652 10.4858 5.25045 10.587 5.09771L10.6573 4.99151V3.28375C10.6573 1.40294 10.6564 1.39244 10.4614 1.0003C10.3961 0.868973 10.2765 0.711643 10.1231 0.555218C9.93081 0.359102 9.83611 0.290063 9.62309 0.190614C9.47857 0.123137 9.27686 0.0526914 9.17485 0.0340642C8.89341 -0.017348 1.22558 -0.00781563 1.01559 0.0442216ZM3.46087 1.69038C5.19445 2.26823 5.54136 2.39346 5.59393 2.46031C5.65638 2.53967 5.65675 2.5778 5.65675 8.66478V14.7894L5.55049 14.8957C5.4792 14.967 5.41482 15.0019 5.35487 15.0019C5.27008 15.0019 1.30897 13.6981 1.16695 13.6235C1.12988 13.604 1.07653 13.544 1.04837 13.4902C1.00134 13.4004 0.99793 12.8936 1.00637 7.29337C1.01553 1.24495 1.01612 1.19379 1.0781 1.12491C1.14767 1.04759 1.23396 1.00527 1.32812 1.00227C1.3625 1.00121 2.32224 1.31084 3.46087 1.69038ZM12.7966 4.04462C12.6686 4.10038 12.5396 4.25946 12.5147 4.39223C12.4645 4.65982 12.471 4.66866 13.4171 5.61802L14.2969 6.50094L11.6724 6.50144L9.04777 6.50197L8.9245 6.57179C8.58584 6.76359 8.59494 7.26334 8.94029 7.43952C9.05743 7.49927 9.13637 7.50105 11.6789 7.50105H14.2969L13.4171 8.38397C12.4674 9.33695 12.4643 9.34117 12.516 9.61695C12.5449 9.77079 12.7319 9.95775 12.8857 9.98659C13.17 10.0399 13.1255 10.0757 14.574 8.63181C15.3101 7.89816 15.9324 7.25993 15.957 7.21352C16.0144 7.10517 16.0143 6.89664 15.9569 6.78847C15.8875 6.65805 13.2785 4.07031 13.179 4.03334C13.0613 3.98962 12.9129 3.99399 12.7966 4.04462Z" fill="#969696"/>
</svg>
