<svg width="11" height="16" viewBox="0 0 11 16" fill="none" xmlns="http://www.w3.org/2000/svg">
<path fill-rule="evenodd" clip-rule="evenodd" d="M1.01559 0.0442216C0.553691 0.158672 0.168396 0.541936 0.0434442 1.01124C0.00784635 1.14497 0.000533007 2.21354 0.000220471 7.33041C-0.000185826 14.0694 -0.0106558 13.6776 0.178647 14.0008C0.292254 14.1947 0.525469 14.4198 0.706771 14.5105C0.790687 14.5525 1.80162 14.9017 2.95331 15.2865L5.04731 15.9862L5.32859 15.9861C5.67303 15.9861 5.86578 15.9252 6.1248 15.7345C6.33564 15.5793 6.50222 15.3497 6.59442 15.0874C6.64583 14.9411 6.65687 14.8295 6.65687 14.4558V14.0018L7.83669 14.0013C8.72798 14.0009 9.06708 13.99 9.22326 13.9569C9.86936 13.8199 10.4443 13.2624 10.6099 12.6123C10.6797 12.3381 10.6808 11.0747 10.6111 10.9399C10.5095 10.7435 10.2519 10.6296 10.039 10.6869C9.89487 10.7257 9.72954 10.8893 9.68794 11.0343C9.66962 11.0982 9.65709 10.7908 9.6569 11.7512L9.65659 12.361L9.58302 12.519C9.54258 12.6059 9.44963 12.7282 9.37653 12.7908C9.13687 12.9959 9.09393 13.0017 7.80803 13.0017H6.65759L6.6494 7.66514L6.64124 2.32858L6.54317 2.12159C6.32645 1.66419 6.11208 1.51736 5.23086 1.22276L4.5785 1.00468L6.76851 1.00249C9.20507 1.00005 9.12209 0.993425 9.37653 1.21123C9.44963 1.2738 9.54258 1.3961 9.58302 1.48298L9.65659 1.641L9.65709 2.25056C9.65737 3.24127 9.66975 2.904 9.68925 2.97426C9.73244 3.12972 9.92668 3.30052 10.092 3.32846C10.2582 3.35652 10.4858 3.25045 10.587 3.09771L10.6573 2.99151V2.28375C10.6573 0.402941 10.6564 1.39244 10.4614 1.0003C10.3961 0.868973 10.2765 0.711643 10.1231 0.555218C9.93081 0.359102 9.83611 0.290063 9.62309 0.190614C9.47857 0.123137 9.27686 0.0526914 9.17485 0.0340642C8.89341 -0.017348 1.22558 -0.00781563 1.01559 0.0442216ZM3.46087 1.69038C5.19445 2.26823 5.54136 2.39346 5.59393 2.46031C5.65638 2.53967 5.65675 2.5778 5.65675 8.66478V14.7894L5.55049 14.8957C5.4792 14.967 5.41482 15.0019 5.35487 15.0019C5.27008 15.0019 1.30897 13.6981 1.16695 13.6235C1.12988 13.604 1.07653 13.544 1.04837 13.4902C1.00134 13.4004 0.99793 12.8936 1.00637 7.29337C1.01553 1.24495 1.01612 1.19379 1.0781 1.12491C1.14767 1.04759 1.23396 1.00527 1.32812 1.00227C1.3625 1.00121 2.32224 1.31084 3.46087 1.69038Z" fill="#969696"/>
</svg>
