<svg width="24" height="24" viewBox="0 0 24 24" fill="none" xmlns="http://www.w3.org/2000/svg">
<circle cx="12" cy="12" r="11.5" stroke="#2196F3"/>
<path d="M13.2308 5H10.1923C9.91617 5 9.69231 5.22386 9.69231 5.5V9.73077C9.69231 10.0069 9.46845 10.2308 9.19231 10.2308H8.20711C7.76165 10.2308 7.53857 10.7693 7.85355 11.0843L11.4541 14.6849C11.6494 14.8802 11.966 14.8802 12.1612 14.6849L15.7618 11.0843C16.0768 10.7693 15.8537 10.2308 15.4083 10.2308H14.2308C13.9546 10.2308 13.7308 10.0069 13.7308 9.73077V5.5C13.7308 5.22386 13.5069 5 13.2308 5Z" fill="#2196F3"/>
<rect x="7" y="17" width="10" height="1.53846" rx="0.769231" fill="#2196F3"/>
</svg>
