<svg width="14" height="14" viewBox="0 0 14 14" fill="none" xmlns="http://www.w3.org/2000/svg">
<path fill-rule="evenodd" clip-rule="evenodd" d="M0.291308 0.0367573C0.165284 0.092024 0.0337827 0.251878 0.0111878 0.377276C0.00120478 0.432731 -0.00286359 1.64944 0.00214358 3.08109C0.0111252 5.65418 0.0119702 5.6851 0.075749 5.7705C0.111237 5.81804 0.179147 5.88595 0.226684 5.92143C0.3124 5.98543 0.335089 5.98596 2.99987 5.98596C5.66466 5.98596 5.68735 5.98543 5.77306 5.92143C5.8206 5.88595 5.88851 5.81804 5.924 5.7705C5.988 5.68478 5.98853 5.66209 5.98853 2.99731C5.98853 0.332525 5.988 0.309836 5.924 0.224119C5.88851 0.176583 5.8206 0.108673 5.77306 0.0731845C5.68757 0.00934314 5.65893 0.00859202 3.03671 0.00176975C0.881465 -0.00380073 0.36895 0.00270859 0.291308 0.0367573ZM8.30278 0.0367573C8.17675 0.092024 8.04525 0.251878 8.02266 0.377276C8.01268 0.432731 8.00861 1.64944 8.01361 3.08109C8.0226 5.65418 8.02344 5.6851 8.08722 5.7705C8.12271 5.81804 8.19062 5.88595 8.23816 5.92143C8.32387 5.98543 8.34656 5.98596 11.0113 5.98596C13.6761 5.98596 13.6988 5.98543 13.7845 5.92143C13.8321 5.88595 13.9 5.81804 13.9355 5.7705C13.9995 5.68478 14 5.66209 14 2.99731C14 0.332525 13.9995 0.309836 13.9355 0.224119C13.9 0.176583 13.8321 0.108673 13.7845 0.0731845C13.699 0.00934314 13.6704 0.00859202 11.0482 0.00176975C8.89294 -0.00380073 8.38042 0.00270859 8.30278 0.0367573ZM5.00274 2.99731V5.00018H2.99987H0.997006V2.99731V0.994441H2.99987H5.00274V2.99731ZM13.0142 2.99731V5.00018H11.0113H9.00848V2.99731V0.994441H11.0113H13.0142V2.99731ZM0.291308 8.04823C0.165284 8.1035 0.0337827 8.26335 0.0111878 8.38875C0.00120478 8.4442 -0.00286359 9.66091 0.00214358 11.0926C0.0111252 13.6656 0.0119702 13.6966 0.075749 13.782C0.111237 13.8295 0.179147 13.8974 0.226684 13.9329C0.3124 13.9969 0.335089 13.9974 2.99987 13.9974C5.66466 13.9974 5.68735 13.9969 5.77306 13.9329C5.8206 13.8974 5.88851 13.8295 5.924 13.782C5.988 13.6963 5.98853 13.6736 5.98853 11.0088C5.98853 8.344 5.988 8.32131 5.924 8.23559C5.88851 8.18806 5.8206 8.12014 5.77306 8.08466C5.68757 8.02081 5.65893 8.02006 3.03671 8.01324C0.881465 8.00767 0.36895 8.01418 0.291308 8.04823ZM8.30278 8.04823C8.17675 8.1035 8.04525 8.26335 8.02266 8.38875C8.01268 8.4442 8.00861 9.66091 8.01361 11.0926C8.0226 13.6656 8.02344 13.6966 8.08722 13.782C8.12271 13.8295 8.19062 13.8974 8.23816 13.9329C8.32387 13.9969 8.34656 13.9974 11.0113 13.9974C13.6761 13.9974 13.6988 13.9969 13.7845 13.9329C13.8321 13.8974 13.9 13.8295 13.9355 13.782C13.9995 13.6963 14 13.6736 14 11.0088C14 8.344 13.9995 8.32131 13.9355 8.23559C13.9 8.18806 13.8321 8.12014 13.7845 8.08466C13.699 8.02081 13.6704 8.02006 11.0482 8.01324C8.89294 8.00767 8.38042 8.01418 8.30278 8.04823ZM5.00274 11.0088V13.0116H2.99987H0.997006V11.0088V9.00591H2.99987H5.00274V11.0088ZM13.0142 11.0088V13.0116H11.0113H9.00848V11.0088V9.00591H11.0113H13.0142V11.0088Z" fill="#969696"/>
</svg>
