<svg width="16" height="18" viewBox="0 0 16 18" fill="none" xmlns="http://www.w3.org/2000/svg">
<path d="M14.6667 1.33333H12V0H10.6667V1.33333H5.33333V0H4V1.33333H1.33333C0.6 1.33333 0 1.93333 0 2.66667V16C0 16.7333 0.6 17.3333 1.33333 17.3333H14.6667C15.4 17.3333 16 16.7333 16 16V2.66667C16 1.93333 15.4 1.33333 14.6667 1.33333ZM14.6667 16H1.33333V6.66667H14.6667V16ZM14.6667 5.33333H1.33333V2.66667H4V4H5.33333V2.66667H10.6667V4H12V2.66667H14.6667V5.33333Z" fill="#969696"/>
<rect x="3.3335" y="8" width="2.66667" height="2.66667" fill="#969696"/>
<rect x="3.3335" y="12" width="2.66667" height="2.66667" fill="#969696"/>
<rect x="8" y="8" width="2.66667" height="2.66667" fill="#969696"/>
</svg>
