<svg width="16" height="12" viewBox="0 0 16 12" fill="none" xmlns="http://www.w3.org/2000/svg">
<path fill-rule="evenodd" clip-rule="evenodd" d="M4.81249 7.28587C6.52995 7.28587 7.92222 5.89359 7.92222 4.17614C7.92222 2.45868 6.52995 1.06641 4.81249 1.06641C3.09503 1.06641 1.70276 2.45868 1.70276 4.17614C1.70276 5.89359 3.09503 7.28587 4.81249 7.28587ZM4.81249 8.35227C7.11891 8.35227 8.98863 6.48255 8.98863 4.17614C8.98863 1.86972 7.11891 0 4.81249 0C2.50607 0 0.636353 1.86972 0.636353 4.17614C0.636353 6.48255 2.50607 8.35227 4.81249 8.35227Z" fill="#969696"/>
<path fill-rule="evenodd" clip-rule="evenodd" d="M8.75 11.375H9.625C9.625 9.92525 7.47037 8.75 4.8125 8.75C2.15463 8.75 0 9.92525 0 11.375H0.875C0.875 11.1204 1.07624 10.6974 1.82854 10.287C2.54776 9.8947 3.60112 9.625 4.8125 9.625C6.02388 9.625 7.07724 9.8947 7.79646 10.287C8.54876 10.6974 8.75 11.1204 8.75 11.375Z" fill="#969696"/>
<path d="M14.8364 4.90909C15.0545 4.69091 15.0545 4.36364 14.8364 4.14545L13.8545 3.16364C13.6364 2.94545 13.3091 2.94545 13.0909 3.16364L9 7.25455V9H10.7455L14.8364 4.90909ZM13.4727 3.54545L14.4545 4.52727L13.6364 5.34545L12.6545 4.36364L13.4727 3.54545ZM9.54545 8.45455V7.47273L12.2727 4.74545L13.2545 5.72727L10.5273 8.45455H9.54545Z" fill="#969696"/>
<path fill-rule="evenodd" clip-rule="evenodd" d="M8.79999 7.17175L12.9495 3.02226C13.2458 2.72598 13.6997 2.72598 13.996 3.02226L14.9778 4.00408C15.2741 4.30037 15.2741 4.75427 14.9778 5.05056L10.8283 9.20005H8.79999V7.17175ZM10.7454 9.00005H8.99999V7.25459L13.0909 3.16369C13.3091 2.9455 13.6364 2.9455 13.8545 3.16369L14.8364 4.1455C15.0545 4.36369 15.0545 4.69096 14.8364 4.90914L10.7454 9.00005ZM13.4727 3.5455L14.4545 4.52732L13.6364 5.3455L12.6545 4.36369L13.4727 3.5455ZM12.9374 4.36369L13.6364 5.06266L14.1717 4.52732L13.4727 3.82835L12.9374 4.36369ZM9.74544 7.55562V8.25459H10.4444L12.9717 5.72732L12.2727 5.02835L9.74544 7.55562ZM9.54544 7.47278V8.45459H10.5273L13.2545 5.72732L12.2727 4.7455L9.54544 7.47278Z" fill="#969696"/>
</svg>
