<svg width="15" height="10" viewBox="0 0 15 10" fill="none" xmlns="http://www.w3.org/2000/svg">
<path fill-rule="evenodd" clip-rule="evenodd" d="M6.94133 0.416879C5.32836 0.607964 3.83078 1.35414 2.24154 2.75862C1.68691 3.24878 0.772117 4.23898 0.534534 4.60638C0.435429 4.7596 0.435429 4.97376 0.534534 5.12698C0.662216 5.32445 1.19372 5.94078 1.57024 6.32804C2.92157 7.7179 4.42719 8.6936 5.84573 9.09879C6.46291 9.27508 6.77466 9.31719 7.46193 9.31719C8.1492 9.31719 8.46095 9.27508 9.07813 9.09879C10.7413 8.62373 12.5685 7.3263 14.027 5.58463C14.4262 5.10791 14.4602 5.05154 14.4602 4.86668C14.4602 4.68181 14.4262 4.62545 14.027 4.14872C12.5783 2.41879 10.7559 1.12004 9.10591 0.641611C8.55222 0.481049 8.18635 0.426688 7.58523 0.415618C7.28383 0.410083 6.99408 0.410631 6.94133 0.416879ZM8.13322 1.3737C9.42452 1.56822 10.8302 2.32796 12.181 3.56133C12.5927 3.93728 13.4077 4.80577 13.4077 4.8686C13.4077 4.87898 13.3132 4.99551 13.1977 5.12758C11.6033 6.95142 9.78688 8.11059 8.13322 8.35965C7.78201 8.41256 7.14182 8.41256 6.79063 8.35965C5.60001 8.18029 4.3266 7.53092 3.06427 6.45937C2.60763 6.07175 1.51618 4.94885 1.51618 4.86668C1.51618 4.85525 1.61066 4.73784 1.72612 4.60578C3.31007 2.794 5.12561 1.63044 6.76682 1.37521C7.09946 1.32348 7.7947 1.32271 8.13322 1.3737ZM7.07833 2.11577C5.89184 2.33297 5.04826 3.10482 4.76051 4.23648C4.6865 4.52761 4.6865 5.20575 4.76051 5.49687C5.0251 6.53746 5.79115 7.3035 6.83173 7.5681C7.12286 7.64211 7.801 7.64211 8.09212 7.5681C9.13271 7.3035 9.89875 6.53746 10.1634 5.49687C10.2037 5.33831 10.2156 5.19438 10.2156 4.86668C10.2156 4.53898 10.2037 4.39505 10.1634 4.23648C9.90223 3.20951 9.16025 2.45627 8.13322 2.17548C7.94614 2.12435 7.24755 2.08481 7.07833 2.11577ZM7.89956 3.07561C8.4136 3.19017 8.88022 3.56626 9.11986 4.05915C9.26182 4.35112 9.30522 4.57646 9.29122 4.94888C9.27796 5.30135 9.21033 5.54186 9.04621 5.82022C8.92943 6.01826 8.61351 6.33418 8.41547 6.45096C7.83835 6.79126 7.08551 6.79126 6.50839 6.45096C6.31034 6.33418 5.99442 6.01826 5.87765 5.82022C5.53734 5.2431 5.53734 4.49026 5.87765 3.91314C5.99442 3.71509 6.31034 3.39918 6.50839 3.2824C6.92276 3.03807 7.40765 2.96601 7.89956 3.07561Z" fill="#969696"/>
</svg>
