<svg width="14" height="19" viewBox="0 0 14 19" fill="none" xmlns="http://www.w3.org/2000/svg">
<path fill-rule="evenodd" clip-rule="evenodd" d="M3.60318 1.19401C1.80514 1.84945 0.281959 2.42425 0.218376 2.47131C-0.00992487 2.6403 6.46869e-05 2.46439 6.46869e-05 6.31673C6.46869e-05 9.65053 0.0167989 10.3611 0.111481 11.0445C0.389 13.0477 1.15272 14.5976 2.50116 15.894C3.38713 16.7458 4.32359 17.3676 6.0765 18.2679C6.69351 18.5848 6.87865 18.6642 6.99983 18.6642C7.23477 18.6642 8.8989 17.7998 9.86198 17.1775C12.1769 15.6816 13.4216 13.859 13.8334 11.3624C13.9861 10.4359 14 10.0164 14 6.31473C14 2.5279 14.0069 2.66644 13.8095 2.48469C13.693 2.37736 7.15978 -0.00327784 6.99079 3.38873e-06C6.92568 0.00127942 5.40126 0.538599 3.60318 1.19401ZM9.81593 2.22577C11.3652 2.78948 12.6788 3.26716 12.735 3.28732L12.8372 3.32389L12.8234 6.86521C12.8113 9.97202 12.8019 10.4579 12.7472 10.8258C12.4746 12.6574 11.8675 13.8945 10.6849 15.0276C9.88618 15.793 8.76885 16.5387 7.37098 17.2394L6.99455 17.4281L6.40484 17.1216C4.03517 15.8902 2.70755 14.7218 1.95065 13.2017C1.61552 12.5285 1.42306 11.8863 1.26665 10.9192C1.19279 10.4626 1.18904 10.2961 1.17606 6.88533L1.16249 3.32775L2.63205 2.79215C3.44032 2.49756 4.74964 2.02004 5.54169 1.73092C6.33375 1.44181 6.98569 1.20429 6.99043 1.20305C6.9952 1.20184 8.26668 1.66205 9.81593 2.22577ZM8.43989 8.16454C7.43755 9.16702 6.60113 9.98722 6.58115 9.98722C6.56117 9.98722 6.12222 9.56485 5.60571 9.04865L4.66663 8.1101L4.25666 8.52008L3.84665 8.93008L5.21379 10.2972L6.58093 11.6643L8.83236 9.41268L11.0838 7.16103L10.6731 6.75142L10.2623 6.34185L8.43989 8.16454Z" fill="#969696"/>
</svg>
