<svg width="15" height="15" viewBox="0 0 15 15" fill="none" xmlns="http://www.w3.org/2000/svg">
<path fill-rule="evenodd" clip-rule="evenodd" d="M3.4423 0.347079C3.4197 0.351708 3.30878 0.370442 3.1958 0.388738C2.04437 0.575092 1.01951 1.46372 0.653702 2.59294C0.490328 3.09725 0.497997 2.8631 0.497997 7.34458C0.497997 11.8167 0.490793 11.5933 0.650717 12.0871C0.917512 12.9109 1.52563 13.614 2.31514 14.0116C2.54739 14.1286 2.9063 14.2498 3.1821 14.3044C3.46673 14.3608 10.4853 14.3607 10.7688 14.3043C11.1875 14.221 11.6048 14.0477 11.9639 13.8078C12.2048 13.6469 13.7573 12.0995 13.9347 11.8435C14.1899 11.475 14.3687 11.0544 14.4556 10.6175C14.512 10.334 14.5121 3.31546 14.4557 3.03083C14.1959 1.7191 13.2494 0.734714 11.9328 0.406979C11.7015 0.34938 11.6748 0.348997 7.59171 0.343847C5.33213 0.341026 3.46489 0.342478 3.4423 0.347079ZM11.7415 1.48837C12.1872 1.62326 12.4963 1.80006 12.7696 2.07647C12.9616 2.27071 13.1691 2.58094 13.248 2.79195C13.4073 3.21773 13.3968 2.97824 13.4053 6.36299L13.4132 9.47606L12.4608 9.48756C11.5867 9.49811 11.4903 9.50399 11.2892 9.55902C10.5108 9.77208 9.92335 10.3596 9.71029 11.1379C9.65527 11.339 9.64938 11.4355 9.63884 12.3095L9.62733 13.2619L6.51426 13.254C3.12952 13.2455 3.36901 13.256 2.94322 13.0967C2.45786 12.9151 1.9255 12.3827 1.74348 11.8968C1.58328 11.4692 1.59355 11.7813 1.59355 7.34458C1.59355 2.90788 1.58328 3.21998 1.74348 2.79236C1.9338 2.28424 2.46564 1.76771 2.99939 1.57251C3.39344 1.42839 3.2425 1.43286 7.56432 1.43792C11.2372 1.44225 11.6037 1.44666 11.7415 1.48837ZM4.07802 3.59562C3.94847 3.63328 3.78011 3.8127 3.74221 3.95348C3.67664 4.19697 3.77406 4.45289 3.98139 4.58178L4.08594 4.64677H7.49585H10.9058L11.0103 4.58178C11.0678 4.54604 11.1479 4.4668 11.1883 4.40575C11.2495 4.31326 11.2618 4.26432 11.2618 4.11269C11.2618 3.96107 11.2495 3.91212 11.1883 3.81963C11.1479 3.75858 11.0678 3.67934 11.0103 3.6436L10.9058 3.57861L7.53693 3.57401C5.46017 3.57119 4.13357 3.57946 4.07802 3.59562ZM4.07802 6.8275C3.94847 6.86516 3.78011 7.04459 3.74221 7.18536C3.67664 7.42885 3.77406 7.68477 3.98139 7.81366L4.08594 7.87866H7.49585H10.9058L11.0103 7.81366C11.0678 7.77792 11.1479 7.69869 11.1883 7.63764C11.2495 7.54514 11.2618 7.4962 11.2618 7.34458C11.2618 7.19295 11.2495 7.14401 11.1883 7.05152C11.1479 6.99047 11.0678 6.91123 11.0103 6.87549L10.9058 6.81049L7.53693 6.80589C5.46017 6.80307 4.13357 6.81134 4.07802 6.8275ZM4.07802 10.0592C3.94836 10.0972 3.78008 10.2766 3.74221 10.4172C3.67664 10.6607 3.77406 10.9167 3.98139 11.0455L4.08594 11.1105H5.88191H7.67788L7.78891 11.0371C7.95987 10.9239 8.02993 10.79 8.02993 10.5765C8.02993 10.3629 7.95987 10.229 7.78894 10.1159L7.67793 10.0424L5.92302 10.0376C4.8637 10.0347 4.13239 10.0433 4.07802 10.0592ZM13.3177 10.6518C13.2841 10.7926 13.1189 11.11 12.9934 11.2749C12.8296 11.49 11.5188 12.7879 11.3503 12.9018C11.2048 13.0001 10.9187 13.1383 10.8031 13.1662L10.7277 13.1843V12.4195C10.7277 11.9848 10.7406 11.585 10.7576 11.4933C10.8371 11.0629 11.1804 10.7064 11.6042 10.6139C11.7003 10.5929 12.0411 10.5802 12.5452 10.5788L13.3356 10.5765L13.3177 10.6518Z" fill="#969696"/>
</svg>
