<svg width="16" height="16" viewBox="0 0 16 16" fill="none" xmlns="http://www.w3.org/2000/svg">
<path fill-rule="evenodd" clip-rule="evenodd" d="M6.13696 0.0443195C4.59542 0.253741 3.1516 0.966069 2.06376 2.05391C0.292098 3.82557 -0.402066 6.37686 0.228637 8.79836C0.875409 11.2815 2.87409 13.2461 5.37355 13.8554C5.9669 14 6.36611 14.0449 7.05918 14.0449C7.78895 14.0449 8.16424 13.9987 8.83915 13.8257C9.74846 13.5927 10.7297 13.1054 11.417 12.5455L11.5944 12.401L12.3357 13.1206C12.7434 13.5164 13.5202 14.2852 14.0618 14.8291C14.6034 15.373 15.0987 15.8452 15.1625 15.8784C15.374 15.9886 15.6941 15.934 15.8503 15.7613C15.9267 15.6768 16 15.4881 16 15.3761C16 15.1524 15.9329 15.0768 14.1679 13.3106L12.4318 11.5733L12.5804 11.3909C13.214 10.6131 13.7455 9.48455 13.9518 8.47927C14.0661 7.92197 14.0975 7.60125 14.0969 6.998C14.0957 5.83022 13.845 4.80728 13.3094 3.78349C12.2253 1.7115 10.2314 0.330582 7.90443 0.0401305C7.46204 -0.0151088 6.55849 -0.0129517 6.13696 0.0443195ZM7.90324 1.2115C9.20144 1.40742 10.3019 1.95947 11.2154 2.873C12.3418 3.99932 12.9381 5.43385 12.9381 7.01716C12.9381 8.64158 12.315 10.1115 11.1502 11.2349C10.2535 12.0998 9.21213 12.6193 7.94995 12.8313C7.53429 12.9012 6.60144 12.9021 6.16653 12.833C4.89687 12.6316 3.77977 12.0624 2.87165 11.1543C1.98429 10.2669 1.44215 9.20169 1.22554 7.92003C1.15204 7.48521 1.15157 6.56465 1.2246 6.12267C1.54116 4.20677 2.70224 2.631 4.4408 1.75786C5.47459 1.23867 6.74987 1.03741 7.90324 1.2115Z" fill="white"/>
</svg>
