<svg width="14" height="16" viewBox="0 0 14 16" fill="none" xmlns="http://www.w3.org/2000/svg">
<path fill-rule="evenodd" clip-rule="evenodd" d="M6.73476 2.3664C6.49662 2.44024 6.39879 2.52512 5.62115 3.33275C5.16691 3.8045 4.78609 4.19047 4.77484 4.19047C4.7636 4.19047 4.5881 4.04411 4.38485 3.86523C4.07969 3.59663 3.98679 3.53343 3.85144 3.5022C3.52756 3.42749 3.20167 3.53265 3.01153 3.77319C2.93706 3.86742 2.92031 3.92646 2.92038 4.09432C2.92056 4.35633 2.98828 4.44271 3.60184 4.96352C4.16715 5.44332 4.33503 5.52107 4.80014 5.51841C5.05839 5.51694 5.14406 5.50274 5.31117 5.43365C5.57734 5.32358 5.77124 5.148 6.74348 4.13647C7.67885 3.1633 7.71791 3.10125 7.60256 2.77126C7.50171 2.48279 7.04568 2.27003 6.73476 2.3664ZM8.75008 4.06857C8.57703 4.11247 8.35294 4.3174 8.30253 4.47791C8.21514 4.75606 8.34498 5.04841 8.6213 5.19565L8.76063 5.26989H10.0774H11.3941L11.5421 5.18595C11.77 5.0567 11.8633 4.90377 11.8633 4.65978C11.8633 4.41583 11.77 4.2629 11.5422 4.13362L11.3943 4.04967L10.1322 4.04392C9.39928 4.04057 8.8198 4.05093 8.75008 4.06857ZM6.59824 6.25858C6.47661 6.31018 6.26632 6.50795 5.61677 7.18157C5.16209 7.65307 4.78587 8.03885 4.78068 8.03885C4.7755 8.03885 4.60029 7.8923 4.39135 7.71318C4.08331 7.44917 3.98074 7.38047 3.84947 7.35015C3.27905 7.21849 2.78412 7.64122 2.93739 8.12915C2.9728 8.24181 3.07041 8.34456 3.49518 8.71623C4.14182 9.28207 4.31681 9.36939 4.79948 9.36711C5.05938 9.36589 5.14337 9.35196 5.31117 9.28238C5.57607 9.1725 5.73416 9.02892 6.72826 7.99564C7.36731 7.33141 7.57807 7.09099 7.61176 6.9878C7.78066 6.47074 7.15654 6.0217 6.59824 6.25858ZM8.75008 7.91695C8.57703 7.96085 8.35294 8.16579 8.30253 8.32629C8.21514 8.60444 8.34498 8.89679 8.6213 9.04403L8.76063 9.11827H10.0774H11.3941L11.5421 9.03433C11.77 8.90508 11.8633 8.75215 11.8633 8.50817C11.8633 8.26422 11.77 8.11128 11.5422 7.982L11.3943 7.89806L10.1322 7.8923C9.39928 7.88895 8.8198 7.89931 8.75008 7.91695ZM6.59824 10.0444C6.47661 10.096 6.26632 10.2938 5.61677 10.9674C5.16209 11.4389 4.78587 11.8247 4.78068 11.8247C4.7755 11.8247 4.60029 11.6781 4.39135 11.499C4.08331 11.235 3.98074 11.1663 3.84947 11.136C3.27905 11.0043 2.78412 11.427 2.93739 11.915C2.9728 12.0276 3.07041 12.1304 3.49518 12.502C4.14182 13.0679 4.31681 13.1552 4.79948 13.1529C5.05938 13.1517 5.14337 13.1378 5.31117 13.0682C5.57607 12.9583 5.73416 12.8147 6.72826 11.7814C7.36731 11.1172 7.57807 10.8768 7.61176 10.7736C7.78066 10.2566 7.15654 9.80751 6.59824 10.0444Z" fill="#969696"/>
<rect x="0.5" y="0.5" width="13" height="15" rx="1.5" stroke="#969696"/>
</svg>
