<svg width="14" height="19" viewBox="0 0 14 19" fill="none" xmlns="http://www.w3.org/2000/svg">
<path fill-rule="evenodd" clip-rule="evenodd" d="M3.60318 1.19401C1.80514 1.84945 0.281959 2.42425 0.218376 2.47131C-0.00992487 2.6403 6.46869e-05 2.46439 6.46869e-05 6.31673C6.46869e-05 9.65053 0.016799 10.3611 0.111481 11.0445C0.389 13.0477 1.15272 14.5976 2.50116 15.894C3.38713 16.7458 4.32359 17.3676 6.0765 18.2679C6.69351 18.5848 6.87865 18.6642 6.99983 18.6642C7.23477 18.6642 8.8989 17.7998 9.86198 17.1775C12.1769 15.6816 13.4216 13.859 13.8334 11.3624C13.9861 10.4359 14 10.0164 14 6.31473C14 2.5279 14.0069 2.66644 13.8095 2.48469C13.693 2.37736 7.15978 -0.00327784 6.99079 3.38873e-06C6.92568 0.00127942 5.40126 0.538599 3.60318 1.19401ZM9.81593 2.22577C11.3652 2.78948 12.6788 3.26716 12.735 3.28732L12.8372 3.32389L12.8234 6.86521C12.8113 9.97202 12.8019 10.4579 12.7472 10.8258C12.4746 12.6574 11.8675 13.8945 10.6849 15.0276C9.88618 15.793 8.76885 16.5387 7.37098 17.2394L6.99455 17.4281L6.40484 17.1216C4.03517 15.8902 2.70755 14.7218 1.95065 13.2017C1.61552 12.5285 1.42306 11.8863 1.26665 10.9192C1.19279 10.4626 1.18904 10.2961 1.17606 6.88533L1.16249 3.32775L2.63205 2.79215C3.44032 2.49756 4.74964 2.02004 5.54169 1.73092C6.33375 1.44181 6.98569 1.20429 6.99043 1.20305C6.9952 1.20184 8.26668 1.66205 9.81593 2.22577Z" fill="#969696"/>
<path fill-rule="evenodd" clip-rule="evenodd" d="M7.27907 4.0235C7.07495 4.09734 6.9911 4.18223 6.32454 4.98985C5.9352 5.46161 5.60878 5.84757 5.59914 5.84757C5.5895 5.84757 5.43907 5.70121 5.26486 5.52234C5.0033 5.25373 4.92367 5.19053 4.80766 5.15931C4.53004 5.08459 4.2507 5.18975 4.08773 5.43029C4.0239 5.52453 4.00954 5.58357 4.0096 5.75143C4.00976 6.01343 4.0678 6.09981 4.59371 6.62063C5.07826 7.10043 5.22215 7.17818 5.62082 7.17552C5.84218 7.17405 5.91561 7.15984 6.05885 7.09076C6.287 6.98069 6.4532 6.8051 7.28655 5.79357C8.08829 4.8204 8.12177 4.75836 8.0229 4.42837C7.93645 4.13989 7.54558 3.92714 7.27907 4.0235ZM9.00649 5.72568C8.85816 5.76957 8.66608 5.97451 8.62287 6.13501C8.54797 6.41316 8.65926 6.70551 8.89611 6.85275L9.01553 6.927H10.1442H11.2728L11.3997 6.84305C11.5949 6.7138 11.675 6.56087 11.675 6.31689C11.675 6.07294 11.595 5.92 11.3997 5.79072L11.2729 5.70678L10.1912 5.70102C9.56294 5.69767 9.06625 5.70803 9.00649 5.72568ZM7.16205 7.91569C7.0578 7.96728 6.87755 8.16505 6.32079 8.83867C5.93107 9.31018 5.60859 9.69596 5.60414 9.69596C5.5997 9.69596 5.44952 9.5494 5.27043 9.37028C5.00639 9.10628 4.91848 9.03757 4.80597 9.00725C4.31703 8.87559 3.8928 9.29832 4.02418 9.78625C4.05453 9.89892 4.13819 10.0017 4.50229 10.3733C5.05655 10.9392 5.20654 11.0265 5.62026 11.0242C5.84303 11.023 5.91502 11.0091 6.05885 10.9395C6.2859 10.8296 6.42141 10.686 7.2735 9.65275C7.82125 8.98851 8.00191 8.7481 8.03078 8.64491C8.17555 8.12785 7.6406 7.67881 7.16205 7.91569ZM9.00649 9.57406C8.85816 9.61796 8.66608 9.82289 8.62287 9.9834C8.54797 10.2615 8.65926 10.5539 8.89611 10.7011L9.01553 10.7754H10.1442H11.2728L11.3997 10.6914C11.5949 10.5622 11.675 10.4093 11.675 10.1653C11.675 9.92132 11.595 9.76839 11.3997 9.63911L11.2729 9.55516L10.1912 9.5494C9.56294 9.54606 9.06625 9.55641 9.00649 9.57406ZM7.16205 11.7015C7.0578 11.7531 6.87755 11.9509 6.32079 12.6245C5.93107 13.096 5.60859 13.4818 5.60414 13.4818C5.5997 13.4818 5.44952 13.3352 5.27043 13.1561C5.00639 12.8921 4.91848 12.8234 4.80597 12.7931C4.31703 12.6614 3.8928 13.0841 4.02418 13.5721C4.05453 13.6847 4.13819 13.7875 4.50229 14.1591C5.05655 14.725 5.20654 14.8123 5.62026 14.81C5.84303 14.8088 5.91502 14.7949 6.05885 14.7253C6.2859 14.6154 6.42141 14.4718 7.2735 13.4386C7.82125 12.7743 8.00191 12.5339 8.03078 12.4307C8.17555 11.9137 7.6406 11.4646 7.16205 11.7015Z" fill="#969696"/>
</svg>
