<svg width="16" height="11" viewBox="0 0 16 11" fill="none" xmlns="http://www.w3.org/2000/svg">
<path fill-rule="evenodd" clip-rule="evenodd" d="M1.68915 0.0668853C1.49084 0.193839 1.4803 0.243526 1.46945 1.10225L1.45963 1.87617L1.21929 1.87629C1.03624 1.87638 0.955096 1.89092 0.878987 1.93733C0.59309 2.11166 0.579832 2.49793 0.852595 2.70596C0.950281 2.78048 1.00447 2.79571 1.21551 2.80793L1.4636 2.82229V3.28729V3.75233H0.889743C0.345186 3.75233 0.310446 3.75596 0.209633 3.82331C-0.0759192 4.01406 -0.0686647 4.39101 0.224768 4.6103C0.303223 4.66893 0.363197 4.67572 0.886523 4.68507L1.46197 4.69536L1.4706 6.9052L1.47923 9.11504L1.54781 9.22448C1.66863 9.41729 1.70115 9.42617 2.35034 9.44337L2.93999 9.459L3.01541 9.64662C3.22751 10.1741 3.75284 10.6259 4.3235 10.7716C4.56224 10.8326 5.02472 10.8327 5.26409 10.7718C5.81299 10.6323 6.28522 10.2497 6.5275 9.74825L6.65967 9.47464H8.88765H11.1156L11.2504 9.74825C11.4967 10.2485 11.9733 10.6339 12.5161 10.7718C12.7549 10.8325 13.2173 10.8326 13.4567 10.772C14.0356 10.6255 14.5983 10.1271 14.7858 9.59484L14.8261 9.48052L15.2352 9.46976C15.6834 9.45797 15.7901 9.42317 15.9224 9.24565C15.9872 9.15882 15.9884 9.12974 15.9977 7.43202C16.0044 6.22365 15.9967 5.67065 15.9721 5.5865C15.944 5.49004 15.6563 5.17694 14.5152 4.00067C13.3439 2.79336 13.0728 2.52938 12.9773 2.50284C12.9106 2.48432 12.4925 2.47057 11.9936 2.47047L11.1259 2.47028L11.1258 1.41494C11.1258 0.237397 11.1217 0.212319 10.9102 0.0709815L10.8039 0L6.29792 0.000531527L1.79193 0.00106305L1.68915 0.0668853ZM10.1801 4.7295L10.1721 8.52092H8.43856H6.70495L6.65329 8.34694C6.4684 7.72411 5.91124 7.18303 5.2896 7.02264C5.00646 6.9496 4.525 6.95695 4.25768 7.03837C3.63439 7.22827 3.11841 7.73581 2.94915 8.32549L2.89755 8.50529H2.64962H2.40168V6.59916V4.69301L3.69155 4.68391C5.13063 4.67372 5.11077 4.67666 5.24789 4.45477C5.30405 4.3639 5.31446 4.31008 5.30289 4.17034C5.29067 4.02294 5.27197 3.98138 5.17359 3.88298L5.05861 3.76797L3.73795 3.75233L2.41732 3.7367L2.40866 3.27666L2.40003 2.81659L3.86268 2.80762C5.49442 2.79758 5.45314 2.80305 5.59185 2.5786C5.71515 2.37913 5.64639 2.06572 5.45045 1.93389C5.40108 1.90068 5.07497 1.88852 3.90262 1.87617L2.41732 1.86053L2.40866 1.39931L2.40003 0.938083H6.29401H10.188L10.1801 4.7295ZM13.2475 4.04157C13.5847 4.38982 13.9865 4.80492 14.1406 4.96402L14.4207 5.25326H12.7733H11.1259V4.33082V3.40837H11.8802H12.6346L13.2475 4.04157ZM15.0658 7.36601V8.54071L14.9815 8.5308C14.9066 8.52201 14.8874 8.49293 14.8097 8.27076C14.5929 7.65122 14.0825 7.17956 13.4567 7.02046C13.2205 6.96042 12.7259 6.95995 12.5017 7.01952C11.9736 7.15989 11.4977 7.54675 11.2561 8.03205L11.1259 8.29365V7.2425V6.19135H13.0958H15.0658V7.36601ZM5.27281 8.02045C5.86374 8.3424 5.96902 9.14012 5.48297 9.6125C5.22547 9.86275 4.80599 9.95043 4.44758 9.82889C4.22772 9.75431 3.93176 9.45394 3.85746 9.22992C3.78226 9.00328 3.80008 8.66742 3.89796 8.46686C3.99586 8.26617 4.22238 8.05041 4.41547 7.97392C4.6593 7.87733 5.04892 7.89847 5.27281 8.02045ZM13.4146 7.99944C13.8591 8.21739 14.0692 8.7156 13.9254 9.21038C13.8564 9.4475 13.5672 9.74931 13.3326 9.82889C12.8426 9.99506 12.3147 9.78455 12.0932 9.33458C11.8279 8.79578 12.0823 8.16407 12.6488 7.95476C12.8321 7.887 13.233 7.91038 13.4146 7.99944Z" fill="#969696"/>
</svg>
