<svg width="24" height="24" viewBox="0 0 24 24" fill="none" xmlns="http://www.w3.org/2000/svg">
<circle cx="12" cy="12" r="12" fill="#0069A0"/>
<path fill-rule="evenodd" clip-rule="evenodd" d="M11.4811 8.00507C9.86816 8.19616 8.37057 8.94234 6.78133 10.3468C6.22671 10.837 5.31191 11.8272 5.07433 12.1946C4.97522 12.3478 4.97522 12.562 5.07433 12.7152C5.20201 12.9126 5.73351 13.529 6.11004 13.9162C7.46137 15.3061 8.96698 16.2818 10.3855 16.687C11.0027 16.8633 11.3145 16.9054 12.0017 16.9054C12.689 16.9054 13.0007 16.8633 13.6179 16.687C15.2811 16.2119 17.1083 14.9145 18.5668 13.1728C18.966 12.6961 19 12.6397 19 12.4549C19 12.27 18.966 12.2136 18.5668 11.7369C17.1181 10.007 15.2957 8.70823 13.6457 8.22981C13.092 8.06924 12.7261 8.01488 12.125 8.00381C11.8236 7.99828 11.5339 7.99883 11.4811 8.00507ZM12.673 8.9619C13.9643 9.15641 15.37 9.91615 16.7208 11.1495C17.1325 11.5255 17.9475 12.394 17.9475 12.4568C17.9475 12.4672 17.853 12.5837 17.7375 12.7158C16.1431 14.5396 14.3267 15.6988 12.673 15.9478C12.3218 16.0008 11.6816 16.0008 11.3304 15.9478C10.1398 15.7685 8.8664 15.1191 7.60406 14.0476C7.14742 13.6599 6.05598 12.537 6.05598 12.4549C6.05598 12.4434 6.15045 12.326 6.26592 12.194C7.84987 10.3822 9.6654 9.21864 11.3066 8.96341C11.6393 8.91168 12.3345 8.91091 12.673 8.9619ZM11.6181 9.70397C10.4316 9.92117 9.58805 10.693 9.3003 11.8247C9.22629 12.1158 9.22629 12.7939 9.3003 13.0851C9.5649 14.1257 10.3309 14.8917 11.3715 15.1563C11.6627 15.2303 12.3408 15.2303 12.6319 15.1563C13.6725 14.8917 14.4385 14.1257 14.7031 13.0851C14.7435 12.9265 14.7554 12.7826 14.7554 12.4549C14.7554 12.1272 14.7435 11.9832 14.7031 11.8247C14.442 10.7977 13.7 10.0445 12.673 9.76367C12.4859 9.71254 11.7873 9.67301 11.6181 9.70397ZM12.4394 10.6638C12.9534 10.7784 13.42 11.1545 13.6597 11.6473C13.8016 11.9393 13.845 12.1647 13.831 12.5371C13.8177 12.8895 13.7501 13.1301 13.586 13.4084C13.4692 13.6065 13.1533 13.9224 12.9553 14.0392C12.3781 14.3795 11.6253 14.3795 11.0482 14.0392C10.8501 13.9224 10.5342 13.6065 10.4174 13.4084C10.0771 12.8313 10.0771 12.0785 10.4174 11.5013C10.5342 11.3033 10.8501 10.9874 11.0482 10.8706C11.4626 10.6263 11.9474 10.5542 12.4394 10.6638Z" fill="white"/>
</svg>
